<?xml version="1.0" encoding="UTF-8"?>
<svg id="Layer_1" xmlns="http://www.w3.org/2000/svg" version="1.1" viewBox="0 0 1199.2 581.4">
  <!-- Generator: Adobe Illustrator 29.0.0, SVG Export Plug-In . SVG Version: 2.1.0 Build 186)  -->
  <defs>
    <style>
      .st0, .st1, .st2 {
        isolation: isolate;
      }

      .st0, .st2 {
        font-family: ArialMT, Arial;
        font-size: 79.8px;
      }

      .st0, .st2, .st3 {
        fill: #fff;
      }

      .st2 {
        letter-spacing: 0em;
      }

      .st4 {
        fill: #8fc73e;
      }

      .st3 {
        stroke: #8fc73e;
        stroke-miterlimit: 10;
        stroke-width: 3px;
      }
    </style>
  </defs>
  <rect class="st4" x="8.7" y="207.9" width="365.1" height="267.7"/>
  <g class="st1">
    <text class="st0" transform="translate(108.3 466.1) scale(1 1)"><tspan x="0" y="0">SPO</tspan></text>
    <text class="st2" transform="translate(273.4 466.1) scale(1 1)"><tspan x="0" y="0">RT</tspan></text>
  </g>
  <g>
    <path class="st3" d="M1190.5,354.1h-206.4c8.9,68.8,90.6,74.8,137.5,36.8l47.5,20.7c5.7,8.2-29.4,35.5-37.2,39.7-82.4,44.8-197.6,3-208.1-96.1-17.3-163.4,195.6-211.1,256.9-68.4l9.8,46.1v21.2s0,0,0,0ZM1126.7,305.8c-16.2-68.2-123.6-68.2-139.6,0h139.6Z"/>
    <path class="st3" d="M595.6,462.8v-27.2l-42.5,25.6c-213,52.7-209.4-313.6,4.2-248.6l38.4,23.7v-27.2h60.7v253.6h-60.7,0ZM509.9,261.2c-80.1,13.5-71.5,167,31.9,149.5,82.8-14,74.8-167.6-31.9-149.5Z"/>
    <path class="st3" d="M902.1,462.8h-60.7v-161.5c0-1.2-6.5-20.1-7.8-22.4-16.5-29.1-58.8-22.4-77.1,1.3-5.2,6.8-15.2,28.5-15.2,36.2v146.4h-59.2l-4.6-4.5v-249.1h63.7l1.5,27.2c33.6-34.6,87.8-45.6,128.8-16.4,11.3,8.1,30.5,34.6,30.5,48.1v194.8h0Z"/>
    <path class="st3" d="M1098.5,107.1c52.1-12,57.6,64.5,8.4,63-37.6-1.1-41.6-55.4-8.4-63h0Z"/>
    <path class="st3" d="M992.3,107.1c50.3-11.4,58.2,52,22.2,61.3-47.4,12.3-55.3-53.8-22.2-61.3Z"/>
  </g>
</svg>