<?xml version="1.0" encoding="UTF-8"?>
<svg xmlns="http://www.w3.org/2000/svg" viewBox="0 0 627.6 338.55">
  <defs>
    <style>
      .cls-1 {
        fill: #231f20;
      }

      .cls-2 {
        stroke-width: 2.18px;
      }

      .cls-2, .cls-3 {
        fill: #b66528;
      }

      .cls-2, .cls-4 {
        stroke: #231f20;
      }

      .cls-5, .cls-6 {
        opacity: .25;
      }

      .cls-6, .cls-7, .cls-8 {
        mix-blend-mode: multiply;
      }

      .cls-9 {
        isolation: isolate;
      }

      .cls-4 {
        stroke-width: 1.09px;
      }

      .cls-4, .cls-10 {
        fill: #f8971d;
      }

      .cls-11, .cls-8 {
        opacity: .5;
      }
    </style>
  </defs>
  <g class="cls-9">
    <g id="Layer_1" data-name="Layer 1">
      <g>
        <g class="cls-11">
          <g class="cls-7">
            <path class="cls-4" d="M211.51,284.38h-48.68c5.81-13.98,18.38-23.81,34.13-22.59.45-9.03,5.88-3.43,6.04-3.51,3.83-1.89.31-48.49,7.81-70.27-8.25-4.01,1.99-15.55,3.57-17.56,15.93-20.38,31.72-40.86,48-60.97-1.55-13.11-2.84-26.81-.69-39.9-1.65-1.41-2.47-2.11-4.09-3.51,11.42-8.89,24.55-20.84,36.65-24.28,4.79-1.36,14.4-.75,14.4-.75,0,0,1.04-5.65,1.28-6.96-1.47,1.88-1.66-.38-2.84-3.77-1.33-3.84,4.37-5.27,4.63-2.26,0,0,1.65-6.59,5.76-13.37,4.86-8.01,16.18-14.87,24.87-12.8,0,0,16.55,2.95.68,30.31,4.3,2.07-3.94,7.8-3.94,7.8,0,0,.16.55-4.42,6.51,1.62.75,5.12,3.44,5.93,4.02,10.22,7.39,26.12,18.41,30.17,27.61,6.81,15.49-12.32,44.66-24.1,61.98,19.82,19.89,39.62,41.61,50.94,67.5,1.85,4.24-.24,4.51-.24,4.51,8.16,20.67,7.01,40.37,2.39,61.74,5,.59-1.53,7.82,1.87,9.29,8.15,3.51,2.42,14.05,2.42,14.05-12.2-.1-18.3-.15-30.51-.25,0,0,.92-12.8,11.95-13.55.13-4.27,1.98-8.53,4.93-9.29-2.39-20.29-9.62-35.1-18.74-52.96,0,0-3.44,3.01-11.24,5.65-20.01-11.8-42.02-32.92-53.66-53.07-3.8,18.72-25.22,52.58-32.2,52.32-5.49-.21-31.63-27.23-31.63-27.23-.43.34-10.99,47.22-26.1,62.49,0,0,3.31,2.76,2.73,4.52-.58,1.75-1.85,5.27-3.3,5.02-1.45-.25-4.78,13.55-4.78,13.55Z"/>
            <path class="cls-4" d="M261.7,69.58c-2.46,24.58-1.34,52.99,13.63,74.03,5.86,20.23,20.33,39.01,30.22,57.55,0,0,.04,9.05,2.61,12.05.85,1,3.35,6.24,7.79,9.28,1.43.38,13.5,4.88,10.36-.99-3.38-6.31-5.89-11.66-6.21-12.36.52,1.65,2.64,3.46,3.31,3.63,2.51.61,3.11-.89,2.35-1.79-.22-.26-1.34-1.98-3.25-4.85-3.01-4.52-10.42-9.25-10.42-9.25-3.74-18.35-9.51-36.94-18.8-53.27.06-15.46-1.4-31.14-6.17-45.91-10.75-11.24-15.92-16.87-25.4-28.11Z"/>
            <path class="cls-2" d="M375.8,257.28c-1.53,11.64-13.77,21.08-25.41,21.08s-18.28-9.43-16.75-21.08c1.53-11.64,10.83-21.08,22.47-21.08s21.21,9.44,19.68,21.08Z"/>
            <path class="cls-1" d="M352.01,295.14c-.12.29-3.04.52-6.51.52s-6.18-.24-6.06-.52c.12-.29,3.04-.53,6.51-.53s6.18.24,6.06.53Z"/>
            <path class="cls-1" d="M356.79,289.84c-.16.41-4.28.75-9.22.75s-8.81-.33-8.65-.75c.16-.42,4.28-.75,9.21-.75s8.81.33,8.66.75Z"/>
            <path class="cls-4" d="M350.83,133.07c.85,3,1.38,4.77,1.38,4.77.13,6.27.87,9.53.87,9.53,9.44,10.74,14.21,16.11,23.46,26.85-.61-17.56-4.37-32.37-9.27-36.38,3.32-17.75,2.57-36.24,4.22-54.2"/>
          </g>
        </g>
        <g class="cls-11">
          <g class="cls-7">
            <path class="cls-4" d="M200.92,284.38h-48.68s-4.77-24.09,23.08-22.59c-2.47-9.03,4.99-3.51,4.99-3.51,2.41-1.72.49-51.04,14.27-70.27-6.81-4.01,8.06-15.56,10.49-17.56,24.69-20.28,49.51-40.41,73.97-60.97,3.16-13.22,5.19-26.67,8.22-39.91-1.56-1.41-2.35-2.11-3.94-3.51,10.99-8.4,23.03-20.69,33.99-24.28,4.38-1.43,14.21-.75,14.21-.75,0,0-.67-5.65-.91-6.97-.79,1.88-1.72-.38-4.31-3.76-2.93-3.84,2.04-5.27,3.65-2.26,0,0-1.27-6.59-1.63-13.36-.42-8,4.54-14.85,15.04-12.8,14.09,2.75,22.85,15.96,19.64,30.3,5.11,2.07-1.33,7.8-1.33,7.8,0,0,.55.56-2.86,6.51,1.77.75,5.72,3.43,6.62,4.02,10.54,6.88,27.16,18.42,30.06,27.61,5.48,17.38-28.17,47.28-44.66,61.98,12.29,20.5,20.08,44.25,24.59,67.5.82,4.25-1.26,4.51-1.26,4.51,3.71,20.44,5.66,41.22,8.9,61.74,5.29.59,2.81,7.82,7.17,9.29,10.42,3.51,13.15,14.05,13.15,14.05-12.29-.1-18.44-.15-30.73-.25,0,0-8.95-12.8,1.6-13.55-2.64-4.27-2.98-8.53-.41-9.29-8.53-17.45-20.83-34.53-26.94-52.96,0,0-3.84,3.01-11.85,5.65-17.29-10.8-35.15-32.73-38.94-53.08-11.26,18.43-29.73,44.37-46.85,52.32-.47.22-26.1-27.23-26.1-27.23,3.93,23.01-15.39,45.7-28.1,62.49,0,0,4.22,2.76,4.3,4.51.08,1.75.34,5.27-1.22,5.02-1.56-.25,2.77,13.55,2.77,13.55Z"/>
            <path class="cls-4" d="M287.26,69.57c-5.23,22.17-15,51.05-9.36,74.03-2.74,18.41,2.79,39.67,7.15,57.55,0,0-2.3,9.05-.35,12.05.65,1,2.21,6.24,6.27,9.28,1.39.38,12.85,4.88,10.48-.99-2.55-6.31-3.79-11.66-3.95-12.36.14,1.65,1.88,3.46,2.52,3.63,2.38.61,3.29-.89,2.73-1.79-.16-.26-.92-1.98-2.11-4.85-1.87-4.52-7.8-9.25-7.8-9.25,1.97-17.54,4.97-35.63,2.99-53.28,6.61-14.27,12.15-29.98,11.69-45.91-7.52-11.25-11.49-16.87-20.28-28.11Z"/>
            <path class="cls-2" d="M352.85,257.28c1.53,11.64-5.11,21.08-16.75,21.08s-23.88-9.44-25.41-21.08c-1.53-11.64,8.04-21.09,19.69-21.09s20.95,9.44,22.48,21.09Z"/>
            <path class="cls-1" d="M349.55,295.14c.12.29-2.59.52-6.06.52s-6.39-.24-6.51-.52c-.12-.29,2.59-.53,6.06-.53s6.38.24,6.51.53Z"/>
            <path class="cls-1" d="M350.08,289.84c.16.41-3.72.75-8.65.75s-9.06-.33-9.21-.75c-.16-.42,3.72-.75,8.65-.75s9.06.33,9.22.75Z"/>
            <path class="cls-4" d="M358.08,133.06c-.45,3-.71,4.77-.71,4.77-2.64,6.27-3.39,9.53-3.39,9.53,4.61,10.74,6.87,16.11,11.68,26.85,6.63-17.56,9.9-32.37,6.77-36.38,10.44-16.44,17.65-35.51,22.88-54.2"/>
          </g>
        </g>
        <g class="cls-5">
          <g class="cls-7">
            <path class="cls-4" d="M195.63,284.38h-48.68s-10.53-24.09,17.56-22.59c-3.93-9.03,4.47-3.51,4.47-3.51,1.92-1.62,1.03-52.05,17.5-70.27-6.09-4.01,11.09-15.56,13.94-17.56,29.04-20.25,58.32-40.15,86.95-60.97,5.42-13,8.94-26.38,12.67-39.91-1.52-1.41-2.29-2.11-3.86-3.51,10.76-8.14,22.23-20.67,32.65-24.28,4.2-1.46,14.11-.75,14.11-.75,0,0-1.53-5.65-2.01-6.97-.45,1.88-1.75-.38-5.04-3.76-3.73-3.84.87-5.27,3.17-2.26,0,0-2.74-6.59-5.32-13.36-3.06-8-1.26-14.89,10.13-12.8,14.82,2.73,28.92,14.09,29.12,30.3,5.51,2.07-.02,7.8-.02,7.8,0,0,.73.56-2.09,6.51,1.84.75,6.02,3.43,6.96,4.02,10.67,6.63,27.88,18.63,30,27.61,4.32,18.32-35.84,47.8-54.93,61.98,7.94,21.4,9.81,45.03,11.42,67.5.3,4.25-1.78,4.51-1.78,4.51,1.64,21.62,5.04,41.13,12.16,61.74,5.44.59,4.99,7.82,9.82,9.29,11.55,3.51,18.52,14.05,18.52,14.05-12.34-.1-18.5-.15-30.84-.25,0,0-13.88-12.8-3.58-13.55-4.02-4.27-5.46-8.53-3.07-9.29-11.25-15.94-25.93-33.75-31.04-52.96,0,0-4.04,3.01-12.17,5.65-16.38-10.43-32.15-33.1-31.58-53.08-14.94,18.28-35.41,43.75-54.18,52.32-.48.22-23.33-27.23-23.33-27.23.34,22.4-17.5,44.84-29.09,62.49,0,0,4.67,2.76,5.08,4.51.41,1.75,1.44,5.27-.17,5.02-1.62-.25,6.54,13.55,6.54,13.55Z"/>
            <path class="cls-4" d="M300.05,69.57c-6.91,22.75-21.19,49.87-20.85,74.03-6.59,17.35-6.18,39.29-4.39,57.55,0,0-3.48,9.05-1.82,12.05.55,1,1.64,6.24,5.52,9.28,1.36.38,12.53,4.88,10.55-.99-2.13-6.31-2.74-11.66-2.82-12.36-.05,1.65,1.5,3.46,2.13,3.63,2.32.61,3.38-.89,2.92-1.79-.14-.26-.71-1.98-1.54-4.85-1.3-4.52-6.49-9.25-6.49-9.25,4.77-17.63,11.77-35.06,13.89-53.28,8.98-14.34,18.54-28.75,20.63-45.91-5.91-11.25-9.27-16.87-17.72-28.11Z"/>
            <path class="cls-2" d="M341.36,257.28c3.06,11.64-1.16,21.45-12.42,21.08-12.76-.41-25.89-8.89-29.74-21.08-3.45-10.91,6.65-21.09,18.29-21.09s20.81,9.44,23.87,21.09Z"/>
            <path class="cls-1" d="M348.33,295.14c.24.29-2.37.52-5.84.52s-6.49-.24-6.73-.52c-.25-.29,2.37-.53,5.84-.53s6.48.24,6.73.53Z"/>
            <path class="cls-1" d="M346.72,289.84c.31.41-3.43.75-8.37.75s-9.19-.33-9.5-.75c-.32-.42,3.44-.75,8.37-.75s9.18.33,9.5.75Z"/>
            <path class="cls-4" d="M361.7,133.06c-1.1,3-1.76,4.77-1.76,4.77-4.03,6.27-5.52,9.53-5.52,9.53,2.19,10.74,3.19,16.11,5.79,26.85,6.63-10.99,14.57-23.28,14.78-36.38,13.64-15.77,24.8-34.71,32.2-54.2"/>
          </g>
        </g>
        <g class="cls-5">
          <g class="cls-7">
            <path class="cls-4" d="M216.81,284.38h-48.68c9.48-12.85,22.7-23.7,39.65-22.59,1.92-9.03,6.33-3.42,6.57-3.51,4.9-1.94.81-46.75,4.59-70.27-8.97-4.01-1.05-15.55.1-17.56,11.62-20.39,22.67-41,35.01-60.97-3.78-12.75-6.88-26.59-5.15-39.91-1.69-1.41-2.52-2.11-4.16-3.51,11.67-9.19,25.38-20.86,37.98-24.28,4.94-1.34,14.51-.75,14.51-.75,0,0,1.9-5.65,2.38-6.97-1.81,1.88-1.64-.38-2.11-3.76-.53-3.84,5.54-5.27,5.12-2.26,0,0,3.11-6.59,9.46-13.37,7.5-8.01,22.01-14.87,29.78-12.8,0,0,12.41,2.95-8.79,30.3,3.9,2.07-5.25,7.8-5.25,7.8,0,0-.03.55-5.2,6.51,1.54.75,4.83,3.44,5.58,4.02,10.03,7.66,25.42,18.34,30.22,27.61,7.62,14.69-5.46,43.66-13.83,61.98,23.74,19.44,48.99,40.51,64.12,67.5,2.37,4.23.27,4.51.27,4.51,10.78,21.31,7.81,40.27-.86,61.74,4.85.59-3.71,7.82-.78,9.29,7.02,3.51-2.95,14.05-2.95,14.05-12.16-.1-18.24-.15-30.4-.25,0,0,5.85-12.8,17.13-13.55,1.51-4.27,4.46-8.53,7.6-9.29,1.64-21.32-4.13-34.9-14.64-52.96,0,0-3.24,3.01-10.93,5.65-21.78-12.37-45.84-33.17-61.03-53.07.14,18.34-18.07,52.48-24.86,52.32-5.83-.14-34.39-27.23-34.39-27.23-.28.26-8.88,48.03-25.11,62.49,0,0,2.86,2.76,1.94,4.52-.92,1.75-2.95,5.27-4.35,5.02-1.39-.25-8.56,13.55-8.56,13.55Z"/>
            <path class="cls-4" d="M248.91,69.58c-.87,26.81,6.23,53.94,25.12,74.03,11.43,20.56,28.55,38.04,41.76,57.55,0,0,1.22,9.05,4.08,12.05.95,1,3.92,6.24,8.54,9.28,1.46.38,13.82,4.88,10.29-.99-3.8-6.31-6.94-11.66-7.34-12.36.71,1.65,3.02,3.46,3.71,3.63,2.57.61,3.01-.89,2.16-1.79-.25-.26-1.54-1.98-3.82-4.85-3.59-4.52-11.74-9.25-11.74-9.25-6.84-19.02-17.05-37.52-29.7-53.28-3.53-15.74-8.26-31.29-15.1-45.91-9.81-8.87-19.22-18.19-27.96-28.11Z"/>
            <path class="cls-2" d="M387.29,257.28c-3.85,12.19-16.98,20.66-29.74,21.08-11.26.37-15.48-9.43-12.42-21.08,3.05-11.64,12.22-21.08,23.87-21.08s21.74,10.18,18.29,21.08Z"/>
            <path class="cls-1" d="M353.23,295.14c-.24.29-3.26.52-6.73.52s-6.08-.24-5.84-.52c.25-.29,3.26-.53,6.73-.53s6.08.24,5.84.53Z"/>
            <path class="cls-1" d="M360.14,289.84c-.31.41-4.57.75-9.5.75s-8.68-.33-8.36-.75c.32-.42,4.56-.75,9.49-.75s8.69.33,8.37.75Z"/>
            <path class="cls-4" d="M347.21,133.07c1.5,3,2.42,4.77,2.42,4.77,1.52,6.27,3.01,9.53,3.01,9.53,9.84,8.88,19.65,17.8,29.35,26.85-2.97-12.36-7.52-27.51-17.29-36.38-.64-18.17-5.05-35.94-5.1-54.2"/>
          </g>
        </g>
        <g class="cls-7">
          <g>
            <path class="cls-10" d="M206.21,284.39h-48.68s1-24.09,28.61-22.59c-1-9.04,3.51-4.52,5.52-3.51,0,0,1.01-53.71,11.05-70.27-7.53-4.02,5.02-15.56,7.02-17.57l60.98-60.98s2.26-37.89,3.76-39.9l-4.01-3.51s30.36-23.55,35.32-24.28c5.58-.82,14.3-.75,14.3-.75,0,0,.19-5.64.19-6.97-1.13,1.88-1.69-.38-3.57-3.76-2.14-3.84,3.2-5.27,4.14-2.26,0,0,.19-6.59,2.07-13.36,2.22-8,10.35-14.87,19.95-12.8,0,0,20.7,2.95,10.16,30.3,4.71,2.07-2.63,7.79-2.63,7.79,0,0,.35.56-3.64,6.51,1.7.75,5.33,3.45,6.27,4.02.94.56,29.61,23.58,30.11,27.6,0,0,5.53,20.58-34.38,61.99,21.1,25.3,33.93,55.07,37.77,67.5,1.32,4.28-.75,4.52-.75,4.52,0,0,8.28,25.97,5.65,61.74,5.14.59.64,7.82,4.52,9.29,9.29,3.51,7.78,14.05,7.78,14.05l-30.62-.25s-4.01-12.8,6.78-13.55c-1.26-4.26-.5-8.53,2.26-9.28-6.15-26.6-23.84-50.69-22.84-52.95,0,0-3.64,3.01-11.55,5.64-15.06-8.12-45.06-43.71-46.3-53.08-5.14,14.49-31.97,49.9-39.52,52.33-.56.18-28.86-27.23-28.86-27.23,0,0,11.54,22.34-27.1,62.49,0,0,3.76,2.76,3.51,4.52-.25,1.75-.75,5.26-2.26,5.02-1.51-.25-1,13.55-1,13.55Z"/>
            <path class="cls-1" d="M403.7,298.7l-30.62-.25c-.21,0-.42-.05-.61-.13h0c-.16-.06-.26-.14-.34-.21h0s-.07-.06-.11-.1h0s0,0,0,0c-.02-.02-.04-.04-.06-.05h0c-.11-.12-.14-.18-.17-.23h0c-.06-.09-.07-.12-.08-.15h0c-.03-.05-.03-.07-.04-.09h0s-.01-.04-.02-.05h0s0-.02,0-.03h0v-.02s-.01-.02-.01-.04h0s-.02-.06-.03-.1h0c-.02-.08-.05-.2-.09-.34h0c-.08-.29-.18-.69-.27-1.19h0c-.2-.99-.4-2.35-.4-3.84h0c0-2.01.34-4.32,1.7-6.31h0c1.1-1.65,2.94-2.93,5.47-3.45h0c-.16-.89-.25-1.77-.25-2.62h0c0-2.45.7-4.94,2.61-6.22h0c-5.35-21.88-18.39-41.91-21.76-49.09h0c-.09-.2-.18-.39-.25-.57h0c-1.89,1.18-5.22,2.97-10.15,4.61h0c-.39.13-.83.09-1.19-.1h0c-11.8-6.41-31.35-27.91-41.19-42.46h0c-1.94-2.91-3.51-5.48-4.54-7.71h0c-5.66,12.01-19.63,31.29-29.64,41.96h0c-3.77,3.95-6.75,6.69-9.28,7.56h0l-.46.07h0c-.56-.03-.63-.15-.76-.2h0c-.11-.06-.17-.1-.24-.15h0c-.13-.09-.25-.18-.39-.3h0c-.28-.22-.63-.53-1.05-.91h0c-.86-.76-2.02-1.83-3.39-3.11h0c-2.75-2.56-6.34-5.97-9.9-9.37h0c-3.8-3.64-7.58-7.27-10.28-9.87h0c.17,1.23.28,2.67.28,4.3h0c0,10.37-4.62,28.51-28.01,53.23h0c.2.18.4.37.61.57h0c.93,1.01,2.1,2.05,2.21,3.91h0c0,.13,0,.25-.03.39h0c-.23,1.32-.41,3.51-1.5,5.15h0c-.28.41-.77.87-1.42,1.07h0c-.08.38-.16.95-.22,1.61h0c-.14,1.6-.19,3.76-.19,5.68h0c0,2.61.08,4.78.08,4.79h0l-1.5.06v-1.51,1.51l1.5-.06c.02.41-.14.8-.42,1.1h0c-.28.29-.68.46-1.08.46h-48.68c-.41,0-.8-.17-1.09-.46h0c-.28-.29-.43-.7-.42-1.11h0c.01-.14.24-6.01,3.84-12.04h0c3.56-6.04,10.76-12.1,23.84-12.06h0c.27,0,.53,0,.8,0h0c-.01-.25-.02-.49-.02-.71h0c0-1.37.16-2.4.65-3.29h0c.46-.92,1.57-1.51,2.46-1.46h0c1.09.03,1.89.45,2.63.88h0c.15-4.66.58-14.97,1.69-26.42h0c1.48-14.89,3.97-31.57,8.8-40.73h0c-1.28-1.11-1.94-2.65-1.9-4.17h0c.07-3.3,2.25-6.44,4.46-9.21h0c2.23-2.73,4.64-4.99,5.39-5.73h0l60.58-60.58c.12-2.03.57-9.17,1.14-16.83h0c.69-9.07,1.52-18.67,2.33-21.95h0l-3.24-2.84c-.34-.3-.53-.72-.51-1.18h0c.01-.45.22-.87.58-1.14h0s17.08-13.26,27.81-20.25h0c3.66-2.34,6.28-3.97,8.22-4.33h0c4.34-.64,10.33-.75,13.06-.77h0c.03-.99.07-2.31.1-3.44h0c-.43-.18-.72-.48-.92-.7h0c-.31-.37-.54-.76-.78-1.19h0c-.47-.87-.98-1.95-1.65-3.17h0c-.45-.8-.69-1.62-.69-2.42h0c-.01-1.13.53-2.16,1.28-2.77h0c.76-.62,1.68-.92,2.61-.92h0c.31,0,.64.03.95.11h0c.25-2.61.78-6.62,1.92-10.74h0c2.12-7.6,9.09-14.25,17.95-14.28h0c1.21,0,2.46.13,3.72.4h0c.49.08,3.78.66,7.17,3.01h0c3.61,2.48,7.25,7.18,7.22,14.96h0c0,3.68-.79,8.02-2.66,13.19h0c.8.71,1.28,1.68,1.24,2.65h0c-.08,2.08-1.4,3.58-2.5,4.85h0c-.71.76-1.4,1.38-1.84,1.75h0c-.25.87-.91,2.11-2.86,5.15h0c1.95,1.18,4.27,2.9,4.9,3.27h0c.32.21.65.47,1.39,1.05h0c.7.55,1.66,1.31,2.8,2.23h0c2.28,1.85,5.31,4.33,8.49,7.03h0c6.38,5.41,13.34,11.57,16.43,15.32h0c.83,1.07,1.44,1.79,1.69,2.88h0c.03.12.31,1.22.31,3.3h0c0,7.43-3.57,27.14-34.13,59.16h0c20.77,25.3,33.33,54.51,37.19,66.99h0c.35,1.14.5,2.08.5,2.89h0c.02,1.16-.37,2.13-.93,2.72h0c1.29,4.51,5.9,22.37,5.9,46.96h0c0,4.14-.13,8.48-.43,12.98h0c.99.42,1.76,1.17,2.12,2.03h0c.53,1.21.52,2.39.53,3.47h0c0,.29,0,.55,0,.8h0c0,.86.05,1.61.19,2.04h0c.17.43.22.51.63.7h0c7.89,3,8.88,10.54,8.85,13.82h0c0,1.09-.1,1.79-.1,1.85h0c-.11.74-.74,1.29-1.49,1.29h-.01ZM402.29,295.68s0-.08,0-.12h0c-.03-2.92-.76-8.71-6.9-11.01h0c-1.27-.45-2.12-1.55-2.42-2.58h0c-.33-1.04-.33-2.04-.34-2.97h0c0-.29,0-.56,0-.8h0c.01-1-.07-1.84-.26-2.22h0c-.21-.34-.21-.47-1.13-.63h0c-.8-.09-1.39-.8-1.33-1.61h0c.36-4.87.51-9.56.51-14.02h0c0-21.04-3.44-37.1-5.15-43.77h0c-.57-2.22-.94-3.38-.94-3.38h0c-.13-.42-.07-.9.17-1.27h0c.2-.31.5-.53.85-.63h0s0-.02.02-.04h0c.03-.08.08-.26.08-.59h0c0-.42-.08-1.07-.37-2h0c-3.76-12.22-16.56-41.91-37.48-66.98h0c-.49-.59-.46-1.46.07-2.01h0c31.08-32.27,34.21-51.55,34.21-58.04h0c0-.9-.06-1.56-.11-1.98h0c-.06-.42-.09-.53-.09-.53h0l-.03-.16h0s0-.03-.02-.06h0c-.03-.07-.09-.19-.18-.33h0c-.18-.29-.47-.69-.84-1.15h0c-.75-.93-1.86-2.1-3.19-3.41h0c-2.66-2.63-6.22-5.82-9.82-8.93h0c-7.11-6.14-14.5-12.04-15.36-12.65h0s-.02-.01-.02-.02h0c-1.1-.68-4.71-3.33-6.09-3.92h0c-.41-.18-.71-.53-.84-.96h0c-.12-.43-.05-.88.2-1.26h0c2.57-3.8,3.27-5.37,3.39-5.72h0c.01-.43.21-.86.58-1.14h0s.97-.76,1.92-1.79h0c.99-1,1.78-2.39,1.7-2.8h0c-.06-.21.11-.22-.67-.64h0c-.74-.32-1.09-1.17-.8-1.92h0c2.09-5.42,2.89-9.79,2.89-13.27h0c-.02-5.99-2.28-9.43-4.82-11.63h0c-2.55-2.19-5.47-3.03-6.59-3.28h0c-.32-.07-.45-.09-.45-.09h0l-.11-.02c-1.07-.23-2.12-.34-3.13-.34h0c-7.24-.03-13.27,5.62-15.05,12.07h0c-.91,3.28-1.42,6.55-1.7,8.99h0c-.28,2.44-.32,4.01-.32,4.01h0c-.02.74-.57,1.35-1.3,1.45h0c-.73.1-1.42-.34-1.64-1.04h0c-.16-.44-.37-.53-.82-.57h0c-.59.05-.88.28-.88.69h0c0,.18.06.5.32.96h0c.69,1.26,1.25,2.41,1.63,3.12h0c.31-.14.68-.18,1.03-.08h0c.65.18,1.1.77,1.1,1.45h0c0,1.39-.19,7-.19,7.02h0c-.03.82-.71,1.47-1.53,1.46h0s-.16,0-.44,0h0c-1.84,0-8.98.05-13.62.74h0c-.55,0-3.58,1.59-7.01,3.87h0c-3.51,2.29-7.75,5.29-11.84,8.27h0c-6.04,4.4-11.74,8.74-14.32,10.72h0l2.63,2.31c.56.49.67,1.31.28,1.93h0s0,0,0,.01h0c-.02.06-.06.18-.1.34h0c-.08.32-.18.8-.28,1.39h0c-.2,1.18-.41,2.81-.62,4.71h0c-.42,3.81-.84,8.72-1.22,13.57h0c-.75,9.71-1.31,19.15-1.31,19.17h0c-.02.36-.18.71-.44.97h0l-60.99,60.99c-.81.81-3.1,2.95-5.18,5.5h0c-2.11,2.52-3.85,5.53-3.78,7.3h0c.05,1.02.28,1.61,1.59,2.37h0c.36.2.63.53.74.93h0c.11.4.05.82-.17,1.18h0c-4.75,7.74-7.61,25.32-9.08,40.71h0c-1.5,15.43-1.75,28.78-1.75,28.81h0c-.01.52-.28.99-.73,1.26h0c-.44.27-.99.29-1.45.06h0c-.71-.37-1.39-.87-2.05-1.27h0c-.49-.32-.98-.52-1.21-.58h0c-.09.22-.22.79-.22,1.73h0c0,.57.04,1.27.14,2.11h0c.05.44-.1.88-.41,1.2h0c-.31.32-.73.49-1.18.47h0c-.8-.05-1.59-.07-2.35-.07h0c-18.1.07-22.67,11.85-24.16,17.94h0c-.15.65-.25,1.22-.33,1.7h45.45c-.02-.88-.04-2.06-.04-3.34h0c0-1.72.03-3.63.15-5.27h0c.16-1.69.19-2.88.84-4.04h0c.18-.31.65-.86,1.48-.91h0c.09-.16.22-.45.33-.81h0c.27-.87.45-2.06.57-2.88h0s0-.03-.04-.13h0c-.05-.11-.13-.27-.25-.45h0c-.24-.36-.62-.79-1.02-1.18h0c-.79-.78-1.59-1.37-1.6-1.37h0c-.35-.26-.57-.65-.61-1.09h0c-.04-.43.11-.86.42-1.17h0c24.01-24.96,28.29-42.72,28.3-52.31h0c0-4.3-.87-7-1.26-8h0c-.13-.34-.19-.44-.19-.44h0c-.34-.66-.15-1.46.44-1.9h0c.59-.44,1.42-.39,1.95.13h0s6.39,6.19,13.15,12.66h0c6.18,5.92,12.81,12.19,14.86,13.93h0c1.53-.83,4.31-3.21,7.34-6.48h0c3.6-3.83,7.8-8.9,11.92-14.35h0c8.24-10.87,16.21-23.38,18.64-30.28h0c.23-.66.88-1.07,1.58-.99h0c.69.07,1.24.61,1.34,1.3h0c.19,1.77,2.21,5.79,5.4,10.46h0c3.18,4.71,7.49,10.26,12.22,15.76h0c9.2,10.71,20.15,21.32,27.33,25.41h0c5.41-1.87,8.61-3.87,9.85-4.73h0c.43-.3.59-.43.59-.43h0c.55-.46,1.36-.46,1.91,0h0c.44.36.63.92.52,1.45h0c.02.07.05.18.1.31h0c.1.29.26.68.49,1.16h0c.45.96,1.12,2.23,1.96,3.76h0c1.67,3.06,3.98,7.14,6.48,11.92h0c5,9.58,10.77,22.02,13.81,35.16h0c.18.79-.29,1.58-1.07,1.79h0c-.86.16-1.73,1.5-1.74,3.94h0c0,1.06.17,2.26.53,3.47h0c.13.44.05.91-.21,1.29h0c-.26.38-.68.61-1.13.64h0c-2.76.22-4.08,1.16-4.93,2.38h0c-.86,1.23-1.18,2.95-1.17,4.61h0c0,1.39.21,2.7.4,3.56h0l28.03.23h0ZM320.1,33.44h0s0,0,0,0h0Z"/>
          </g>
          <g>
            <path class="cls-10" d="M274.46,69.57c-8.78,39.4-.12,72.9,2.14,74.03-1.76,5.27,18.69,57.56,18.69,57.56,0,0-1.13,9.03,1.13,12.04.75,1,2.78,6.24,7.03,9.29,1.41.38,13.18,4.88,10.42-1-2.96-6.31-4.84-11.66-5.08-12.35.33,1.65,2.26,3.46,2.92,3.62,2.45.61,3.2-.89,2.54-1.79-.19-.26-1.13-1.98-2.68-4.85-2.44-4.52-9.11-9.25-9.11-9.25,0,0-1.38-36.22-7.91-53.28,7.02-31.37,2.76-43.67,2.76-45.93l-22.84-28.11Z"/>
            <path class="cls-1" d="M303.06,223.96l-.49-.23c-2.36-1.7-4.03-3.93-5.23-5.84h0c-1.16-1.86-1.98-3.62-2.13-3.77h0c-1.54-2.18-1.67-5.29-1.71-8.04h0c0-2.09.17-3.93.25-4.7h0c-1.25-3.21-10.8-27.85-15.76-43.95h0c-1.77-5.8-2.98-10.34-3-12.93h0c0-.13,0-.26.01-.39h0c-.16-.24-.28-.5-.45-.79h0c-.32-.64-.63-1.45-.96-2.45h0c-.66-2-1.37-4.77-2.04-8.21h0c-1.33-6.87-2.45-16.41-2.45-27.62h0c0-10.7,1.02-22.93,3.89-35.78h0c.12-.56.56-1,1.12-1.14h0c.56-.13,1.15.07,1.51.52h0l22.84,28.11c.22.27.34.6.34.95h0c-.03.21.29,1.77.63,4.1h0c.33,2.37.66,5.7.66,10.16h0c0,7.26-.87,17.52-3.98,31.55h0c5.99,16.23,7.57,47.47,7.81,52.61h0c1.72,1.29,6.68,5.17,8.96,9.32h0c1.35,2.5,2.25,4.15,2.54,4.62h0l.04.06h0c.33.45.51.99.51,1.56h0c0,.75-.35,1.52-.96,2.02h0c-.61.51-1.41.74-2.26.74h0c-.12,0-.23,0-.35-.01h0c.77,1.89,1.72,4.11,2.83,6.46h0c.34.74.55,1.42.56,2.15h0c.05,1-.6,2.05-1.41,2.46h0c-.79.44-1.59.52-2.41.53h0c-3.38-.02-8.2-1.89-8.9-2.05h0ZM311.96,222.99c.3,0,.55-.03.71-.06h0s.07-.02.09-.02h0c-.02-.15-.09-.41-.26-.77h0c-2.37-5.05-4.06-9.5-4.78-11.48h0c-.18-.38-.33-.78-.42-1.22h0c-.15-.78.32-1.54,1.08-1.75h0c.76-.21,1.56.21,1.82.95h0c.04.12.14.4.29.81h0c.16.31.4.65.66.95h0c.37.45.85.83.99.92h0c.24.06.44.08.59.08h0c-.46-.77-1.23-2.23-2.5-4.55h0c-1.05-1.96-3.24-4.23-5.14-5.91h0c-1.91-1.7-3.51-2.83-3.51-2.83h0c-.38-.27-.61-.71-.63-1.17h0s-.34-9.01-1.5-20.15h0c-1.15-11.12-3.14-24.4-6.31-32.66h0c-.11-.27-.13-.58-.06-.86h0c3.15-14.07,4-24.24,4.01-31.34h0c0-4.31-.32-7.49-.63-9.75h0c-.25-1.88-.51-3.02-.61-3.93h0l-20.56-25.3c-2.32,11.48-3.17,22.4-3.17,32.06h0c0,15.49,2.2,27.76,3.99,33.78h0c.56,1.93,1.15,3.27,1.38,3.58h0c.52.38.76,1.07.54,1.7h0s-.03.13-.03.4h0c-.03,1.71,1.12,6.4,2.87,12.04h0c1.75,5.68,4.09,12.48,6.44,19.01h0c4.69,13.07,9.37,25.05,9.38,25.08h0c.09.24.12.48.09.73h0s-.27,2.18-.27,4.71h0c-.05,2.51.39,5.41,1.11,6.24h0c.6.85,1.17,2.22,2.28,3.99h0c1.04,1.67,2.44,3.51,4.24,4.85h0c1.43.45,5.57,1.88,7.83,1.86h0ZM273.29,70.52l1.17-.95-1.17.95h0Z"/>
          </g>
          <g>
            <path class="cls-3" d="M364.31,257.29c0,11.64-9.44,21.08-21.08,21.08s-21.08-9.44-21.08-21.08,9.44-21.08,21.08-21.08,21.08,9.43,21.08,21.08Z"/>
            <path class="cls-1" d="M320.64,257.29c0-12.48,10.11-22.59,22.59-22.59h0c12.48,0,22.58,10.11,22.59,22.59h0c0,12.47-10.11,22.58-22.59,22.59h0c-12.47,0-22.58-10.11-22.59-22.59h0ZM323.65,257.29c.02,10.81,8.76,19.55,19.57,19.57h0c10.81-.02,19.56-8.76,19.58-19.57h0c-.02-10.82-8.76-19.55-19.58-19.57h0c-10.81.02-19.55,8.76-19.57,19.57h0Z"/>
          </g>
          <path class="cls-1" d="M350.77,295.14c0,.29-2.82.52-6.29.52s-6.28-.24-6.28-.52,2.81-.53,6.28-.53,6.29.23,6.29.53Z"/>
          <path class="cls-1" d="M353.41,289.85c0,.41-4,.74-8.93.74s-8.93-.33-8.93-.74,4-.75,8.93-.75,8.93.33,8.93.75Z"/>
          <g>
            <path class="cls-10" d="M354.44,133.07c.2,3,.33,4.77.33,4.77-1.25,6.27-.19,8.83-.19,8.83l16.5,27.56c3.01-17.56,2.76-32.37-1.25-36.38,6.02-13.05,13.55-54.21,13.55-54.21"/>
            <path class="cls-1" d="M369.79,174.99l-16.5-27.56-.1-.19c-.08-.19-.54-1.41-.54-3.91h0c0-1.43.15-3.27.6-5.59h0c-.04-.55-.16-2.17-.32-4.58h0c-.05-.83.57-1.55,1.4-1.6h0c.83-.06,1.55.57,1.6,1.4h0c.2,2.99.33,4.75.33,4.75h0l-.03.41c-.45,2.24-.58,3.95-.58,5.2h0c0,1.58.21,2.43.29,2.69h0l14.29,23.87c.91-6.21,1.37-11.97,1.37-16.83h0c.06-7.32-1.22-12.7-2.85-14.16h0c-.45-.45-.57-1.12-.31-1.7h0c2.9-6.25,6.32-19.82,8.93-31.69h0c2.63-11.89,4.5-22.13,4.51-22.15h0c.15-.82.93-1.36,1.75-1.21h0c.82.15,1.36.93,1.21,1.75h0c-.03.08-7.18,39.4-13.29,53.7h0c2.27,3.14,2.99,8.49,3.05,15.46h0c0,6.14-.71,13.5-2.06,21.41h0c-.11.62-.59,1.11-1.21,1.23h0c-.09.02-.18.02-.28.02h0c-.52,0-1.02-.27-1.29-.73h0Z"/>
          </g>
        </g>
        <path class="cls-1" d="M0,302.47c0-2.23.33-4.46.99-6.72.66-2.26,1.62-4.31,2.89-6.15,1.27-1.85,2.8-3.35,4.59-4.52,1.8-1.17,3.83-1.76,6.1-1.76h46.21c1.05,0,1.96.41,2.69,1.23.74.82,1.11,1.82,1.11,2.99s-.37,2.17-1.11,2.99c-.74.82-1.64,1.23-2.69,1.23H16.25c-1.85,0-3.35.37-4.48,1.1-1.14.73-2.04,1.63-2.7,2.68-.66,1.06-1.11,2.21-1.34,3.48-.24,1.26-.36,2.41-.36,3.47s.12,2.22.36,3.47c.23,1.26.68,2.42,1.34,3.47s1.56,1.95,2.7,2.68c1.13.73,2.63,1.1,4.48,1.1h44.54c1.05,0,1.96.41,2.69,1.23.74.83,1.11,1.82,1.11,2.99s-.37,2.16-1.11,2.99c-.74.82-1.64,1.23-2.69,1.23H13.79c-2.17,0-4.1-.59-5.79-1.76-1.69-1.17-3.12-2.68-4.31-4.52-1.19-1.85-2.1-3.91-2.73-6.19-.64-2.28-.95-4.51-.95-6.68Z"/>
        <path class="cls-1" d="M134.5,317.41c0,1.17-.37,2.16-1.11,2.99-.74.82-1.64,1.23-2.69,1.23-.53,0-1-.12-1.43-.35-.43-.23-.82-.53-1.19-.88-.32-.35-.56-.65-.72-.88-2.17-2.99-4.4-5.33-6.7-7.03-2.3-1.7-4.71-2.99-7.26-3.86-2.53-.88-5.21-1.42-8.04-1.63-2.83-.2-5.85-.3-9.07-.3h-16.17v10.71c0,1.17-.39,2.16-1.15,2.99-.77.82-1.65,1.23-2.65,1.23-1.05,0-1.95-.41-2.69-1.23-.74-.82-1.11-1.82-1.11-2.99v-22.58c0-1.75.29-3.34.88-4.74.58-1.4,1.32-2.61,2.22-3.6.89-1,1.93-1.78,3.09-2.33,1.16-.56,2.32-.83,3.49-.83h41.37c1.48,0,2.88.31,4.2.92,1.32.62,2.48,1.46,3.48,2.51,1,1.05,1.8,2.28,2.38,3.69.58,1.41.87,2.93.87,4.57,0,1.17-.37,2.16-1.11,2.99-.74.82-1.64,1.23-2.69,1.23s-1.96-.41-2.7-1.23c-.74-.83-1.11-1.82-1.11-2.99,0-.88-.28-1.61-.83-2.2-.56-.59-1.21-.94-1.94-1.05h-41.53c-.69,0-1.24.19-1.67.57-.42.38-.68.83-.79,1.36v4.57h16.17c4.65,0,8.85.29,12.6.88,3.75.59,7.15,1.54,10.18,2.86,3.04,1.31,5.76,3.04,8.17,5.18,2.4,2.15,4.56,4.76,6.46,7.86.53.76.79,1.56.79,2.38Z"/>
        <g>
          <g class="cls-7">
            <path class="cls-1" d="M210.02,303.6c0,2.23-.31,4.47-.92,6.72-.62,2.25-1.52,4.3-2.7,6.15-1.18,1.85-2.61,3.35-4.28,4.52-1.68,1.17-3.57,1.76-5.69,1.76h-33.67c-2.02-.12-3.82-.78-5.39-1.98-1.58-1.2-2.92-2.71-4.03-4.53-1.11-1.81-1.95-3.83-2.55-6.06-.59-2.23-.88-4.42-.88-6.59s.3-4.46.92-6.72c.61-2.26,1.51-4.31,2.69-6.15,1.18-1.85,2.61-3.35,4.28-4.52,1.67-1.17,3.57-1.76,5.69-1.76h33.67c2.02.12,3.81.78,5.39,1.98,1.57,1.21,2.92,2.71,4.03,4.52,1.1,1.82,1.96,3.84,2.55,6.06.59,2.23.89,4.42.89,6.59ZM199.02,313.23c1.08-.73,1.93-1.63,2.54-2.68.61-1.05,1.03-2.2,1.25-3.47.22-1.25.34-2.41.34-3.47s-.11-2.21-.34-3.46c-.22-1.26-.64-2.42-1.25-3.48-.61-1.05-1.47-1.95-2.54-2.68-1.08-.73-2.46-1.1-4.13-1.1h-29.83c-1.73,0-3.11.37-4.18,1.1-1.06.73-1.89,1.63-2.51,2.68-.62,1.06-1.03,2.21-1.25,3.48-.23,1.25-.34,2.41-.34,3.46s.11,2.22.34,3.47c.22,1.27.63,2.42,1.25,3.47.61,1.05,1.45,1.95,2.51,2.68,1.06.74,2.45,1.1,4.18,1.1h29.83c1.67,0,3.05-.36,4.13-1.1Z"/>
          </g>
          <g class="cls-8">
            <path class="cls-1" d="M213.88,303.6c0,2.23-.31,4.47-.93,6.72-.62,2.25-1.52,4.3-2.7,6.15-1.18,1.85-2.6,3.35-4.28,4.52-1.67,1.17-3.57,1.76-5.69,1.76h-33.67c-2.02-.12-3.82-.78-5.39-1.98-1.57-1.2-2.92-2.71-4.02-4.53-1.11-1.81-1.96-3.83-2.55-6.06-.59-2.23-.88-4.42-.88-6.59s.31-4.46.92-6.72c.61-2.26,1.51-4.31,2.69-6.15,1.19-1.85,2.62-3.35,4.28-4.52,1.67-1.17,3.57-1.76,5.69-1.76h33.67c2.01.12,3.81.78,5.38,1.98,1.58,1.21,2.92,2.71,4.03,4.52,1.11,1.82,1.96,3.84,2.54,6.06.59,2.23.89,4.42.89,6.59ZM202.87,313.23c1.08-.73,1.93-1.63,2.54-2.68.62-1.05,1.03-2.2,1.25-3.47.22-1.25.34-2.41.34-3.47s-.11-2.21-.34-3.46c-.22-1.26-.64-2.42-1.25-3.48-.61-1.05-1.46-1.95-2.54-2.68-1.08-.73-2.46-1.1-4.13-1.1h-29.83c-1.73,0-3.11.37-4.17,1.1-1.06.73-1.89,1.63-2.51,2.68-.62,1.06-1.03,2.21-1.25,3.48-.23,1.25-.34,2.41-.34,3.46s.11,2.22.34,3.47c.22,1.27.63,2.42,1.25,3.47.61,1.05,1.45,1.95,2.51,2.68,1.06.74,2.45,1.1,4.17,1.1h29.83c1.67,0,3.05-.36,4.13-1.1Z"/>
          </g>
          <g class="cls-6">
            <path class="cls-1" d="M216.68,303.6c0,2.23-.31,4.47-.92,6.72-.62,2.25-1.52,4.3-2.7,6.15-1.18,1.85-2.6,3.35-4.28,4.52-1.67,1.17-3.57,1.76-5.69,1.76h-33.67c-2.02-.12-3.82-.78-5.39-1.98-1.57-1.2-2.92-2.71-4.02-4.53-1.11-1.81-1.96-3.83-2.55-6.06-.59-2.23-.88-4.42-.88-6.59s.31-4.46.92-6.72c.61-2.26,1.51-4.31,2.69-6.15,1.18-1.85,2.61-3.35,4.28-4.52,1.67-1.17,3.57-1.76,5.69-1.76h33.67c2.01.12,3.81.78,5.38,1.98,1.58,1.21,2.92,2.71,4.03,4.52,1.11,1.82,1.96,3.84,2.55,6.06.59,2.23.89,4.42.89,6.59ZM205.68,313.23c1.08-.73,1.93-1.63,2.54-2.68.62-1.05,1.03-2.2,1.25-3.47.22-1.25.34-2.41.34-3.47s-.11-2.21-.34-3.46c-.22-1.26-.64-2.42-1.25-3.48-.61-1.05-1.46-1.95-2.54-2.68-1.08-.73-2.46-1.1-4.13-1.1h-29.83c-1.73,0-3.11.37-4.18,1.1-1.06.73-1.89,1.63-2.51,2.68-.62,1.06-1.03,2.21-1.25,3.48-.23,1.25-.34,2.41-.34,3.46s.11,2.22.34,3.47c.22,1.27.63,2.42,1.25,3.47.62,1.05,1.45,1.95,2.51,2.68,1.06.74,2.45,1.1,4.18,1.1h29.83c1.67,0,3.05-.36,4.13-1.1Z"/>
          </g>
          <g class="cls-8">
            <path class="cls-1" d="M206.17,303.6c0,2.23-.32,4.47-.93,6.72-.62,2.25-1.52,4.3-2.7,6.15-1.18,1.85-2.61,3.35-4.28,4.52-1.67,1.17-3.57,1.76-5.69,1.76h-33.67c-2.02-.12-3.81-.78-5.39-1.98-1.58-1.2-2.92-2.71-4.02-4.53-1.11-1.81-1.96-3.83-2.55-6.06-.59-2.23-.88-4.42-.88-6.59s.3-4.46.92-6.72c.61-2.26,1.51-4.31,2.69-6.15,1.18-1.85,2.61-3.35,4.28-4.52,1.67-1.17,3.57-1.76,5.69-1.76h33.67c2.02.12,3.81.78,5.39,1.98,1.58,1.21,2.92,2.71,4.03,4.52,1.11,1.82,1.96,3.84,2.55,6.06.59,2.23.89,4.42.89,6.59ZM195.16,313.23c1.08-.73,1.93-1.63,2.55-2.68s1.03-2.2,1.25-3.47c.22-1.25.33-2.41.33-3.47s-.11-2.21-.33-3.46c-.22-1.26-.64-2.42-1.25-3.48-.61-1.05-1.47-1.95-2.55-2.68-1.08-.73-2.46-1.1-4.13-1.1h-29.83c-1.73,0-3.11.37-4.17,1.1-1.06.73-1.89,1.63-2.51,2.68-.62,1.06-1.03,2.21-1.25,3.48-.22,1.25-.34,2.41-.34,3.46s.11,2.22.34,3.47c.22,1.27.63,2.42,1.25,3.47.62,1.05,1.45,1.95,2.51,2.68,1.06.74,2.45,1.1,4.17,1.1h29.83c1.67,0,3.05-.36,4.13-1.1Z"/>
          </g>
          <g class="cls-6">
            <path class="cls-1" d="M203.36,303.6c0,2.23-.32,4.47-.93,6.72-.62,2.25-1.52,4.3-2.7,6.15-1.18,1.85-2.61,3.35-4.28,4.52-1.67,1.17-3.57,1.76-5.69,1.76h-33.67c-2.02-.12-3.82-.78-5.39-1.98-1.58-1.2-2.92-2.71-4.02-4.53-1.11-1.81-1.95-3.83-2.55-6.06-.59-2.23-.88-4.42-.88-6.59s.3-4.46.92-6.72c.61-2.26,1.51-4.31,2.69-6.15,1.18-1.85,2.62-3.35,4.28-4.52,1.67-1.17,3.57-1.76,5.69-1.76h33.67c2.02.12,3.81.78,5.39,1.98,1.58,1.21,2.92,2.71,4.03,4.52,1.11,1.82,1.96,3.84,2.55,6.06.59,2.23.89,4.42.89,6.59ZM192.35,313.23c1.08-.73,1.93-1.63,2.55-2.68.61-1.05,1.03-2.2,1.25-3.47.22-1.25.34-2.41.34-3.47s-.11-2.21-.34-3.46c-.22-1.26-.64-2.42-1.25-3.48-.62-1.05-1.47-1.95-2.55-2.68-1.08-.73-2.46-1.1-4.13-1.1h-29.83c-1.73,0-3.11.37-4.18,1.1-1.06.73-1.89,1.63-2.51,2.68-.62,1.06-1.03,2.21-1.25,3.48-.22,1.25-.33,2.41-.33,3.46s.11,2.22.33,3.47c.22,1.27.63,2.42,1.25,3.47.62,1.05,1.45,1.95,2.51,2.68,1.06.74,2.45,1.1,4.18,1.1h29.83c1.67,0,3.05-.36,4.13-1.1Z"/>
          </g>
        </g>
        <g>
          <g class="cls-7">
            <path class="cls-1" d="M424.68,317.66c0,2.23-.32,4.47-.95,6.72-.63,2.25-1.56,4.3-2.77,6.15-1.21,1.85-2.68,3.35-4.4,4.52-1.72,1.17-3.67,1.76-5.85,1.76h-34.6c-2.08-.12-3.92-.78-5.54-1.98-1.62-1.2-2.99-2.71-4.13-4.53-1.14-1.81-2.01-3.83-2.62-6.06-.61-2.23-.91-4.42-.91-6.59s.32-4.46.95-6.72c.63-2.26,1.55-4.31,2.76-6.15,1.22-1.85,2.69-3.35,4.4-4.52,1.71-1.17,3.67-1.76,5.84-1.76h34.6c2.07.12,3.92.78,5.54,1.98,1.62,1.21,3,2.71,4.14,4.52,1.14,1.82,2.01,3.84,2.62,6.06.61,2.23.91,4.42.91,6.59ZM413.37,327.28c1.11-.73,1.99-1.63,2.61-2.68.64-1.05,1.06-2.21,1.29-3.47.23-1.25.35-2.41.35-3.47s-.12-2.21-.35-3.46c-.23-1.27-.66-2.42-1.29-3.48-.63-1.05-1.51-1.95-2.61-2.67-1.11-.73-2.53-1.1-4.25-1.1h-30.66c-1.77,0-3.2.37-4.29,1.1-1.09.73-1.95,1.63-2.58,2.67-.64,1.06-1.06,2.21-1.29,3.48-.23,1.25-.35,2.41-.35,3.46s.11,2.22.35,3.47c.23,1.26.65,2.42,1.29,3.47.63,1.05,1.49,1.95,2.58,2.68,1.09.74,2.52,1.1,4.29,1.1h30.66c1.71,0,3.13-.36,4.25-1.1Z"/>
          </g>
          <g class="cls-8">
            <path class="cls-1" d="M428.64,317.66c0,2.23-.32,4.47-.95,6.72-.64,2.25-1.56,4.3-2.77,6.15-1.22,1.85-2.68,3.35-4.4,4.52-1.72,1.17-3.67,1.76-5.85,1.76h-34.6c-2.08-.12-3.92-.78-5.54-1.98-1.62-1.2-2.99-2.71-4.13-4.53-1.14-1.81-2.01-3.83-2.62-6.06-.6-2.23-.91-4.42-.91-6.59s.32-4.46.95-6.72c.63-2.26,1.56-4.31,2.77-6.15,1.22-1.85,2.69-3.35,4.41-4.52,1.72-1.17,3.67-1.76,5.84-1.76h34.6c2.07.12,3.92.78,5.54,1.98,1.62,1.21,3,2.71,4.14,4.52,1.14,1.82,2.01,3.84,2.62,6.06.6,2.23.91,4.42.91,6.59ZM417.33,327.28c1.11-.73,1.99-1.63,2.62-2.68.63-1.05,1.06-2.21,1.29-3.47.23-1.25.34-2.41.34-3.47s-.12-2.21-.34-3.46c-.23-1.27-.66-2.42-1.29-3.48-.63-1.05-1.51-1.95-2.62-2.67-1.11-.73-2.53-1.1-4.25-1.1h-30.66c-1.77,0-3.2.37-4.29,1.1-1.09.73-1.95,1.63-2.58,2.67-.63,1.06-1.06,2.21-1.29,3.48-.23,1.25-.34,2.41-.34,3.46s.11,2.22.34,3.47c.23,1.26.65,2.42,1.29,3.47s1.49,1.95,2.58,2.68c1.09.74,2.52,1.1,4.29,1.1h30.66c1.72,0,3.13-.36,4.25-1.1Z"/>
          </g>
          <g class="cls-6">
            <path class="cls-1" d="M431.53,317.66c0,2.23-.32,4.47-.95,6.72-.64,2.25-1.56,4.3-2.77,6.15-1.21,1.85-2.68,3.35-4.4,4.52-1.72,1.17-3.67,1.76-5.85,1.76h-34.6c-2.08-.12-3.92-.78-5.54-1.98-1.62-1.2-3-2.71-4.13-4.53-1.14-1.81-2.01-3.83-2.62-6.06-.6-2.23-.91-4.42-.91-6.59s.32-4.46.95-6.72c.63-2.26,1.55-4.31,2.77-6.15,1.21-1.85,2.69-3.35,4.4-4.52,1.72-1.17,3.67-1.76,5.84-1.76h34.6c2.07.12,3.92.78,5.54,1.98,1.62,1.21,3,2.71,4.14,4.52,1.14,1.82,2.01,3.84,2.62,6.06.6,2.23.91,4.42.91,6.59ZM420.21,327.28c1.11-.73,1.98-1.63,2.62-2.68.63-1.05,1.06-2.21,1.29-3.47.23-1.25.34-2.41.34-3.47s-.11-2.21-.34-3.46c-.23-1.27-.66-2.42-1.29-3.48-.63-1.05-1.51-1.95-2.62-2.67-1.11-.73-2.53-1.1-4.25-1.1h-30.66c-1.77,0-3.19.37-4.29,1.1-1.09.73-1.94,1.63-2.58,2.67-.63,1.06-1.06,2.21-1.29,3.48-.23,1.25-.35,2.41-.35,3.46s.12,2.22.35,3.47c.22,1.26.65,2.42,1.29,3.47.64,1.05,1.49,1.95,2.58,2.68,1.1.74,2.52,1.1,4.29,1.1h30.66c1.72,0,3.13-.36,4.25-1.1Z"/>
          </g>
          <g class="cls-8">
            <path class="cls-1" d="M420.71,317.66c0,2.23-.32,4.47-.95,6.72-.64,2.25-1.56,4.3-2.77,6.15-1.22,1.85-2.68,3.35-4.4,4.52-1.72,1.17-3.67,1.76-5.85,1.76h-34.6c-2.08-.12-3.92-.78-5.54-1.98-1.62-1.2-2.99-2.71-4.13-4.53-1.14-1.81-2.01-3.83-2.62-6.06-.6-2.23-.91-4.42-.91-6.59s.32-4.46.95-6.72c.63-2.26,1.56-4.31,2.77-6.15,1.22-1.85,2.69-3.35,4.41-4.52,1.72-1.17,3.67-1.76,5.84-1.76h34.6c2.07.12,3.92.78,5.54,1.98,1.62,1.21,3,2.71,4.14,4.52,1.14,1.82,2.01,3.84,2.62,6.06.6,2.23.91,4.42.91,6.59ZM409.4,327.28c1.11-.73,1.98-1.63,2.61-2.68.64-1.05,1.06-2.21,1.29-3.47.23-1.25.34-2.41.34-3.47s-.12-2.21-.34-3.46c-.23-1.27-.66-2.42-1.29-3.48-.63-1.05-1.51-1.95-2.61-2.67-1.11-.73-2.53-1.1-4.25-1.1h-30.66c-1.77,0-3.2.37-4.29,1.1-1.09.73-1.95,1.63-2.58,2.67-.63,1.06-1.06,2.21-1.29,3.48-.23,1.25-.35,2.41-.35,3.46s.12,2.22.35,3.47c.23,1.26.65,2.42,1.29,3.47.63,1.05,1.49,1.95,2.58,2.68,1.09.74,2.52,1.1,4.29,1.1h30.66c1.72,0,3.14-.36,4.25-1.1Z"/>
          </g>
          <g class="cls-6">
            <path class="cls-1" d="M417.83,317.66c0,2.23-.32,4.47-.95,6.72-.64,2.25-1.56,4.3-2.77,6.15-1.22,1.85-2.68,3.35-4.4,4.52-1.72,1.17-3.66,1.76-5.84,1.76h-34.6c-2.07-.12-3.92-.78-5.54-1.98-1.62-1.2-3-2.71-4.13-4.53-1.14-1.81-2.01-3.83-2.62-6.06-.6-2.23-.9-4.42-.9-6.59s.31-4.46.95-6.72c.63-2.26,1.55-4.31,2.77-6.15,1.21-1.85,2.69-3.35,4.4-4.52,1.71-1.17,3.67-1.76,5.84-1.76h34.6c2.07.12,3.92.78,5.54,1.98,1.62,1.21,3,2.71,4.14,4.52,1.14,1.82,2.01,3.84,2.62,6.06.6,2.23.91,4.42.91,6.59ZM406.52,327.28c1.11-.73,1.99-1.63,2.62-2.68.63-1.05,1.06-2.21,1.29-3.47.23-1.25.34-2.41.34-3.47s-.11-2.21-.34-3.46c-.23-1.27-.66-2.42-1.29-3.48-.63-1.05-1.51-1.95-2.62-2.67-1.11-.73-2.53-1.1-4.24-1.1h-30.66c-1.77,0-3.2.37-4.29,1.1-1.09.73-1.95,1.63-2.58,2.67-.64,1.06-1.06,2.21-1.29,3.48-.23,1.25-.35,2.41-.35,3.46s.12,2.22.35,3.47c.23,1.26.65,2.42,1.29,3.47.63,1.05,1.49,1.95,2.58,2.68,1.09.74,2.52,1.1,4.29,1.1h30.66c1.71,0,3.13-.36,4.24-1.1Z"/>
          </g>
        </g>
        <path class="cls-1" d="M228.21,305.83c-1.25-.6-2.34-1.42-3.27-2.46-.94-1.04-1.68-2.25-2.23-3.64-.54-1.39-.82-2.88-.82-4.5s.27-3.11.82-4.5c.55-1.38,1.29-2.59,2.23-3.63.94-1.04,2.03-1.86,3.27-2.47,1.25-.6,2.6-.9,4.06-.9h47.37c1.04,0,1.92.41,2.65,1.21.73.81,1.09,1.79,1.09,2.94s-.36,2.13-1.09,2.94c-.73.81-1.61,1.21-2.65,1.21h-47.53c-.78,0-1.47.3-2.07.91-.59.61-.89,1.37-.89,2.29,0,.87.3,1.62.89,2.25.6.64,1.29.95,2.07.95h43.16c1.46,0,2.82.3,4.1.91,1.27.6,2.38,1.43,3.32,2.46.94,1.03,1.68,2.26,2.22,3.67.55,1.42.82,2.94.82,4.55s-.27,3.12-.82,4.5c-.55,1.39-1.28,2.6-2.22,3.64-.94,1.03-2.05,1.84-3.32,2.42-1.28.58-2.64.87-4.1.87h-47.29c-1.05,0-1.93-.41-2.65-1.21-.73-.81-1.09-1.79-1.09-2.94s.36-2.13,1.09-2.94c.73-.81,1.61-1.21,2.65-1.21h47.61c.78,0,1.46-.3,2.03-.91.57-.6.86-1.33.86-2.2,0-.92-.29-1.7-.86-2.33-.57-.64-1.25-.95-2.03-.95h-43.31c-1.46,0-2.81-.3-4.06-.92Z"/>
        <path class="cls-1" d="M293.26,322.92c-1.24-.6-2.34-1.42-3.27-2.46-.94-1.04-1.68-2.25-2.23-3.64-.54-1.38-.82-2.88-.82-4.49s.28-3.12.82-4.5c.55-1.38,1.3-2.59,2.23-3.63.93-1.04,2.03-1.86,3.27-2.47,1.25-.6,2.6-.9,4.06-.9h47.37c1.05,0,1.93.41,2.66,1.21.73.81,1.09,1.79,1.09,2.94s-.36,2.13-1.09,2.94c-.73.81-1.61,1.21-2.66,1.21h-47.53c-.78,0-1.47.3-2.07.91-.59.61-.9,1.37-.9,2.29,0,.87.3,1.62.9,2.25.6.64,1.29.95,2.07.95h43.16c1.46,0,2.82.3,4.1.91,1.27.6,2.38,1.43,3.32,2.46.94,1.03,1.68,2.26,2.22,3.67.55,1.41.82,2.93.82,4.54s-.27,3.12-.82,4.5c-.54,1.38-1.28,2.59-2.22,3.63-.94,1.04-2.05,1.84-3.32,2.42-1.28.58-2.64.87-4.1.87h-47.29c-1.05,0-1.93-.41-2.65-1.21-.73-.81-1.1-1.79-1.1-2.94s.36-2.13,1.1-2.94c.73-.81,1.61-1.21,2.65-1.21h47.61c.78,0,1.45-.3,2.03-.91.57-.6.85-1.33.85-2.2,0-.92-.29-1.7-.85-2.34-.58-.63-1.26-.95-2.03-.95h-43.32c-1.46,0-2.81-.31-4.06-.92Z"/>
        <path class="cls-1" d="M483.19,299.21c.79-1.05,1.77-1.58,2.93-1.58,1.06,0,1.96.41,2.7,1.23.74.82,1.11,1.82,1.11,2.99,0,1.05-.26,1.91-.79,2.55l-.09.08-19.18,28.64c-.95,1.35-2.15,2.44-3.6,3.29-1.45.85-3.02,1.27-4.71,1.27-1.59,0-3.08-.37-4.48-1.14-1.4-.76-2.57-1.81-3.53-3.17l-19.25-28.55c-.32-.41-.58-.87-.8-1.37-.21-.49-.31-1.03-.31-1.62,0-1.17.36-2.17,1.11-2.99.74-.82,1.64-1.23,2.69-1.23,1.27,0,2.27.56,3.01,1.67l18.47,27.32c.36.47.83.98,1.38,1.54.56.55,1.13.83,1.71.83s1.15-.28,1.7-.83c.55-.56.99-1.07,1.31-1.54l18.63-27.41Z"/>
        <path class="cls-1" d="M510.21,306.06c-1.85,0-3.34.37-4.48,1.1-1.14.73-2.04,1.63-2.69,2.68-.66,1.06-1.11,2.21-1.35,3.48-.24,1.25-.35,2.41-.35,3.46s.12,2.22.35,3.47c.23,1.26.69,2.42,1.35,3.47.66,1.05,1.56,1.95,2.69,2.68,1.14.73,2.63,1.1,4.48,1.1h43.68c1.06,0,1.95.41,2.69,1.23.73.83,1.11,1.82,1.11,2.99s-.37,2.16-1.11,2.99c-.75.82-1.64,1.23-2.69,1.23h-46.21c-2.17,0-4.1-.59-5.79-1.76-1.69-1.17-3.13-2.68-4.31-4.52-1.19-1.85-2.1-3.91-2.74-6.19-.63-2.28-.95-4.51-.95-6.68s.33-4.46.99-6.72c.65-2.26,1.62-4.31,2.89-6.15,1.27-1.84,2.8-3.35,4.6-4.52,1.79-1.17,3.83-1.76,6.1-1.76h45.42c1.06,0,1.95.41,2.69,1.23.73.82,1.11,1.82,1.11,2.99s-.37,2.16-1.11,2.99c-.75.82-1.64,1.23-2.69,1.23h-43.68ZM553.25,313.79c.74.82,1.11,1.82,1.11,2.99s-.37,2.17-1.11,2.99c-.74.82-1.64,1.23-2.7,1.23h-39.47c-1.06,0-1.95-.41-2.7-1.23-.74-.83-1.1-1.82-1.1-2.99s.37-2.16,1.1-2.99c.74-.82,1.64-1.23,2.7-1.23h39.47c1.06,0,1.96.41,2.7,1.23Z"/>
        <path class="cls-1" d="M627.6,331.72c0,1.17-.37,2.16-1.11,2.99-.73.82-1.63,1.23-2.69,1.23-.53,0-1.01-.12-1.43-.35-.42-.24-.82-.53-1.19-.88-.32-.35-.55-.65-.71-.88-2.17-2.99-4.4-5.34-6.7-7.03-2.3-1.7-4.72-2.99-7.26-3.87-2.53-.88-5.22-1.42-8.04-1.63-2.83-.21-5.85-.31-9.08-.31h-16.17v10.72c0,1.17-.38,2.16-1.15,2.99-.77.82-1.65,1.23-2.66,1.23-1.06,0-1.96-.41-2.69-1.23-.75-.82-1.11-1.82-1.11-2.99v-22.58c0-1.75.29-3.34.87-4.74.58-1.41,1.32-2.61,2.22-3.61.9-.99,1.93-1.78,3.09-2.33,1.17-.56,2.33-.84,3.49-.84h41.37c1.48,0,2.88.31,4.2.92,1.31.62,2.48,1.46,3.49,2.51,1,1.05,1.8,2.28,2.38,3.69.58,1.41.87,2.93.87,4.57,0,1.17-.37,2.17-1.11,2.99-.73.82-1.63,1.23-2.69,1.23s-1.96-.41-2.7-1.23c-.74-.82-1.11-1.82-1.11-2.99,0-.88-.28-1.61-.83-2.2-.56-.59-1.21-.93-1.94-1.05h-41.53c-.68,0-1.24.19-1.67.57-.42.38-.69.84-.79,1.36v4.57h16.17c4.65,0,8.85.29,12.6.88,3.75.59,7.15,1.54,10.19,2.87,3.04,1.31,5.76,3.04,8.16,5.18,2.4,2.14,4.55,4.76,6.46,7.86.53.76.79,1.56.79,2.37Z"/>
      </g>
    </g>
  </g>
</svg>