<?xml version="1.0" encoding="UTF-8"?>
<svg id="Layer_1" xmlns="http://www.w3.org/2000/svg" version="1.1" viewBox="0 0 1215.4 581.4">
  <!-- Generator: Adobe Illustrator 29.0.0, SVG Export Plug-In . SVG Version: 2.1.0 Build 186)  -->
  <defs>
    <style>
      .st0 {
        fill: #10384f;
      }
    </style>
  </defs>
  <path class="st0" d="M142.7,491.2c-.7-.6,2.2-3.2,2.8-3.8,10.6-10.1,19.6-17.7,28.9-29.5.6-.8,4.8-6,4.4-6.5-27.7,24.1-61.9,37.2-98.9,30.9-2.8-.5-8.8-1.5-11.2-2.5-1-.4-1.9-1.1-1.7-2.3,20.3-2,39.6-8.7,56.1-20.6,1-.7,11.3-8.4,10.4-9.2-8.8,3.7-17.7,7.5-27.2,9.2-29.4,5.2-57.4-5.1-82.2-20l-.6-2.2,29.5,2.5h19.9c56.6-1.8,115.2-26.3,145-76.3,15.2-25.5,14.9-41.3,13.2-70.1,0-.8-.6-4.9.9-4.7,15.4,37.6,18.3,80.8,1.7,118.5-15.9,36-50.6,66.8-85.2,84.4-.9.5-4.9,2.7-5.6,2.2h0Z"/>
  <path class="st0" d="M584.3,340.8c6.5.6,16.1,3.5,21.6,7,19.7,12.3,18.5,40.4-.8,52.4,11.1,4.8,19.9,13.5,21.1,26.1,2.5,27.3-18.7,37.6-42.5,38.9-22.1,1.2-45.2-.8-67.4-.1,0-.5-.7-1.2-.7-1.5v-121.8l.9-.9h67.8ZM539.8,393h35.1c2.7,0,10.4-2,13-3.2,11.2-5.3,11.3-21.7.2-27.4-1.6-.8-8-3-9.4-3h-38.5l-.9.9v31.1c0,.2.8.9.6,1.6h0ZM539.8,411.1c.2.6-.6,1.4-.6,1.6v32.9l.9.9h42.9c1.1,0,8.8-2.2,10.2-2.8,13.4-5.8,12.2-25.2-1.5-30.2-1.8-.6-9.7-2.5-11.2-2.5h-40.7,0Z"/>
  <path class="st0" d="M1084.9,340.8h63.1c79.5,7.2,79.4,119.2-3.1,124.3-18.9,1.2-38.8-.9-57.8,0l-2.1-1v-123.4h0ZM1108.5,360.7v83.6c.5.9,1.2.9,2.1,1,9.9,1.2,33.2.5,42.7-2.1,37.8-10,40.3-65.2,4.8-79-2.1-.8-11-3.4-12.7-3.4h-37Z"/>
  <path class="st0" d="M856.8,465.1h-23.9c-.3,0-1.3-.7-1.6-1.1l-24.5-35h-31.1l-.9.9v34.2l-.9.9h-21.8l-.9-.9v-122.4l.9-.9h60.3c6.6,0,20.4,5.6,26,9.4,22.4,15.5,22.8,52.9.6,68.8-1.4,1-9.5,5.2-9.5,6l27.3,40.1h0ZM774.7,409.2c11-.8,23.6,1.1,34.4,0,26.4-2.9,30.3-37.8,8.1-45.9-1.3-.5-7.9-2.5-8.7-2.5h-32.9l-.9.9v47.5h0Z"/>
  <path class="st0" d="M665.4,360.7c.2.6-.6,1.4-.6,1.6v28.6c0,.3,1.6,1.3,2.1,1.3,17.4.3,36.3-1.6,53.5-.4,1.2,0,3.4,0,4.1,1.1.8,1.3.9,16.1.3,17.6-.1.3-1.1,1.3-1.2,1.3h-58.1v33.6h69c1,6.3,1,13.6,0,19.9h-91.7l-1.6-4c2.1-37.9-2.7-78.7,0-116.2,0-1.4.5-2.7.6-4h89.8l.9.9v17.4c0,.1-1.5,1.6-1.6,1.6h-65.6,0Z"/>
  <path class="st0" d="M1053.8,465.1l-12.8-28.5h-60.2c0-.1-13.6,28.5-13.6,28.5h-22.7l55.6-124.3,22.1.4,55.7,122.1-.7,1.9h-23.3ZM988.5,417.9h43.8l.7-1.3-21-49.2-1.4-1.7-22.1,52.2h0Z"/>
  <path class="st0" d="M202.4,243.9c.2,1.5-1.2,1.9-2.3,2.4-29.9,15.9-74.9,28.4-108.5,21.7-50.9-10.3-77.8-60.9-84.4-108.6.8.3,1.6,1.2,2.1,1.9,3,4.2,5.7,10.1,8.9,14.7,41.1,58.9,115.9,74.6,184.1,67.9h0Z"/>
  <path class="st0" d="M895.3,465.1c.2-.6-.6-1.4-.6-1.6v-101.9l-.9-.9h-39.2l-.9-.9v-18l.9-.9h103.8l.9.9v18l-.9.9h-39.2l-.9.9v102.5l-.9.9h-22.1Z"/>
  <path class="st0" d="M394.4,340.8c-.2.6.6,1.4.6,1.6v101.9l.9.9h62.8l.9.9v18l-.9.9h-86.4l-.9-.9v-123.4h23,0Z"/>
  <path class="st0" d="M203,247c.1,1.1-.6,2-1.3,2.7-4.5,4.8-13.8,11.5-19.4,15.4-24.5,17.4-54.2,30.2-84.7,31.6-38.8,1.7-69.1-33.6-86.3-64.7-2.7-4.9-6.1-10.6-7.2-16.1,10.9,10.9,21.2,21.1,34.6,29.1,11.6,6.9,31.4,18.2,43.8,22.1,40,12.4,84.2-3.1,120.4-20.1h0Z"/>
  <path class="st0" d="M466.2,234c.9.3,7.7,8.8,9,10.3,11,13.2,21.5,26.8,32.3,40.2l1.9,1.1v-50c0-.2.8-.9.6-1.6h14.3c-.3.8.6,1.8.6,2.2v75.2c0,.2-.8.9-.6,1.6h-12.1l-41-50.4-2.2-.6v51h-14l-.9-.9v-77.1l.9-.9h11.2,0Z"/>
  <path class="st0" d="M728.1,290.5v20.8c0,.2-.8.9-.6,1.6h-14l-.9-.9v-76.4c0-.2.8-.9.6-1.6h37.6c1.6,0,8.5,1.9,10.4,2.6,20.4,7.3,24,33.4,7.6,47.1-1.9,1.6-4.3,2.2-5.9,4.1,4.5,7.7,11.1,14.7,15.5,22.3.4.6,2,2.8.3,2.8h-14.3l-16.2-22.4h-20.2ZM728.1,277.5h20.8c.9,0,4.8-1.1,5.9-1.6,11.3-4.3,11.9-22.1.8-26.9-1.2-.5-5.1-2-6.1-2h-21.4v30.5h0Z"/>
  <path class="st0" d="M1158.7,232.9c58.6-5.8,63.7,79.1,7.3,81.3-57.2,2.2-60.5-76-7.3-81.3ZM1159.3,246.6c-32.4,3.4-32.1,57.1,7.9,53.9,32.7-2.6,31.6-58.1-7.9-53.9Z"/>
  <path class="st0" d="M1086.7,312.9h-15.2l-16.2-22.4h-20.2v21.4l-.9.9h-14v-78l.9-.9h37.3c.6,0,6.6,1.4,7.6,1.7,22.5,6.4,27.7,35.4,8.8,48.9-1.3.9-4.3,1.5-4.3,3.1,0,2.1,13.5,18.9,15.5,22.5.5.9.9,1.6.7,2.7h0ZM1036.1,247l-.9.9v28.6l.9.9h19.9c.3,0,4.1-.7,4.7-.9,12.4-3.6,14.4-21.5,3-27.3-.8-.4-5.9-2.2-6.5-2.2h-21.1Z"/>
  <path class="st0" d="M290,217.8c-14.7-2.7-31.8-6.4-42.5,6.9-6.8,8.4-8,20.5-10.3,30.7-.2.9.5,1.7-.9,1.5-1.2-.2-1.2-.5-1.7-1.4-1.6-2.8-2.8-6.7-4.5-9.8-6.6-11.8-15.7-23.7-29.9-26-1.9-.3-7.1.8-7.6-1.7,6.3-12.4,17.1-23.9,29.2-30.9,30.9-18,45.9,11,67.1,27.9l1.2,2.8h0Z"/>
  <polygon class="st0" points="491.4 340.8 491.4 465.1 469.3 465.1 468.4 464.2 468.4 341.8 469.3 340.8 491.4 340.8"/>
  <path class="st0" d="M658.5,247v19.3h36.3c2.3,0,2.3,13.1,0,13.1h-36.3v20.2l.9.9h43.2v12.4h-59v-78l.9-.9h55.3l.9.9v11.2l-.9.9h-41.3,0Z"/>
  <path class="st0" d="M385.7,234c-.2.6.6,1.4.6,1.6v49.7c0,.7,1.9,5.9,2.5,6.9,6.1,11,26.6,11.7,32.9,1.2,1.8-3,3.8-9.6,3.8-13v-46.3h14.3c.3,1.1.5,2.2.6,3.4.9,11.6.6,28.7,0,40.4-1.2,24.7-13.6,38.4-39.4,36.2-15.6-1.3-30.2-13.4-30.2-30.1v-49.1l.9-.9h14,0Z"/>
  <path class="st0" d="M1000.3,312.9l-8.1-17.7-37.5-.2c-2.5.7-6.7,15.1-8.5,17.9h-14.9l34.2-77.9c.3-.7.8-.9,1.5-1,1.5-.3,12.4-.2,13.4.3l35.1,76.7-.7,1.9h-14.6ZM960.2,283.1h26.1l.8-1.5-13.9-30.8-13.9,30.8.8,1.5h0Z"/>
  <path class="st0" d="M39.6,288.6l.9-1.8c4.7,2.3,9.7,4.3,14.6,5.9,48.7,15,97.6-1.7,136.4-32,4.4-3.5,9.3-8.9,13.7-11.8.8-.5,1.6-.4,1.5.3-2.3,3.8-4.3,7.7-6.6,11.4-12,19.8-38,48.1-61,53.9-36.1,9.1-70-7-99.6-25.9h0Z"/>
  <path class="st0" d="M828.6,286.4c-9.2-9.9-42.3-4-44.5-26.6-2.5-24.5,25-29.6,43.6-25.6,2.6.6,12,3.4,13.5,5.1,1.8,1.9-2.6,10-4.1,12.1-8.9-4.5-22.4-8.1-31.9-4-8,3.5-8.3,12.5-.2,16.4,14.6,7,43.5,4.4,40.6,29.5-2.8,23.9-37.1,23.7-54,16.8-1.4-.6-7.8-3.7-8.4-4.7-1.3-2.1,3.1-9.6,4.5-11.7,1.1-.3,7.7,3.8,9.6,4.6,7.8,3.1,24.9,5.4,31.1-1.2,3-3.2,3.5-7.3.4-10.7h0Z"/>
  <path class="st0" d="M211.7,342.7c-.2-3.3.7-6.3.6-9.7-.2-9-2.6-22-4.5-30.9-.4-1.9-3.5-14.8-4.5-14.7l-14.9,17.4c-7.4,6.5-14.3,13-22.8,18.3-21.9,13.6-46.8,18.7-72,11.5v-1.8l17-1.3c31.6-5.7,56.6-25.6,76.8-49.4,8.7-10.3,15.9-21.6,21.5-33.8.8,0,1.5,3.6,1.7,4.4,5.6,20.1,14.1,70.2,3.2,88.1-.5.7-1.3,1.6-2.1,1.9h0Z"/>
  <path class="st0" d="M573.7,234l26.7,59,26.1-59h14l-33,77.9c-1.5,2.1-11.6.4-14.6,1l-34.5-79h15.2,0Z"/>
  <path class="st0" d="M914.6,312.9h-14l-.9-.9v-64.9h-25.5c-1-4.1-1-8.9,0-13.1h65.6l.9.9v11.2l-.9.9h-24.2l-.9.9v64.9h0Z"/>
  <polygon class="st0" points="540.1 234 553.8 234 554.7 234.9 554.7 312 553.8 312.9 540.1 312.9 539.2 312 539.2 234.9 540.1 234"/>
  <path class="st0" d="M1096.7,312.9c.2-.6-.6-1.4-.6-1.6v-75.8c0-.2.8-.9.6-1.6h14l.9.9v77.1l-.9.9h-14Z"/>
  <polygon class="st0" points="868.6 234 868.6 312.9 854.6 312.9 853.7 312 853.7 234.9 854.6 234 868.6 234"/>
  <path class="st0" d="M231,138.3c.1,1.3-.8,2.2-1.5,3.1-8,10.4-20,20.2-28.3,30.7l-36.3,14c-.8.2-1.2-.2-.9-.9.6-1.4,5.9-4.8,7.5-6.2.8-.7,1-1.1-.3-.9l-14.7,11.5,1.9,29.9c-.3,3.5-4,2.7-4.4-.6-.6-5-.6-20.5,0-25.5.4-2.9,2-6,4-8.1,9.1-10.1,20.4-18.5,28.8-29.3,7.5-2.9,15.1-5.5,22.6-8.5,2.6-1,20.9-9.8,21.8-9h0ZM175,175.6c-1.1-.2-2,.8-2.5,1.8,1.1.2,2-.8,2.5-1.8Z"/>
  <path class="st0" d="M442.9,174.9h27.6c4.2,8.6-6.3,3.9-10.2,6.5v26.1c-1,1.8-6.8,1-6.8-.6v-26.4c-2.7.9-9.6-1-11.4-.7-.6.1-.6,1.3-1,1.6-1.6,1.1-4.8-1.1-6.7-1.4-3-.5-10.1-.3-10.1,3.9,0,5.8,17.9,3.4,19.8,12.5,2.8,14-18.9,15.1-26.6,8.4l1.4-4.4c5.3.5,7.8,3,13.9,2.4,3.6-.4,6.7-3.7,3.6-6.2-4.1-3.3-17.1-2-18.2-10.2-1.7-12.5,12.2-13.8,21.1-11.2,2,.6,3.2,2.9,3.7-.3h0Z"/>
  <path class="st0" d="M235.3,168.7c-16.3-.5-31.2,12.8-40.7,24.9-1.3,1.7-6.6,10.5-7.2,10.9-.8.5-1.7.5-2.2-.3-.3-.4-1.3-6.9-1.9-8.7-.6-2-1.7-4.1-2.7-6-.9-1.8-4.3-4.7-2.9-6.5l23.7-8.6,21.4-23.9,2.2.3c1,2.7,2.3,5.5,3.8,8,1.1,1.9,7.7,8.7,6.5,10h0Z"/>
  <path class="st0" d="M406.8,194.8v-18.9c1.6-1.8,4.6-.6,6.8-.9v32.6c-1.3,1.5-3.8,1.2-5.3.3-3.7-2.1-11.7-14.8-15.5-18.7-.5-.5-1-1-1.6-1.6l-1.2.6v19.3c-1.6,1.8-4.2.8-6.2.3v-32.9c1.5.1,3.2-.3,4.7,0,2.7.5,13.2,15.6,16.2,18.6.6.7,1.1,1.5,2.2,1.2h0Z"/>
  <path class="st0" d="M980.5,195.4v-20.5h6.2v32.6c-1.2,1.5-4.7,1.2-6,.1l-17-20.3v19.6c0,1.6-5.9,2.5-6.8.6v-32.6c1.5.1,3.2-.3,4.7,0,2.5.5,13.4,15.6,16.2,18.6.7.8,1.6,2,2.8,1.9h0Z"/>
  <path class="st0" d="M800.7,174.5c28.7-3.6,28.3,35.8,2.4,34.6-21.8-1-22.8-32-2.4-34.6ZM803.2,180.1c-15,1.5-13.2,24.8,2.9,22.8,14.3-1.8,11.5-24.2-2.9-22.8Z"/>
  <path class="st0" d="M762.6,174.9c1.1.2,5.4,2.7,6.2,3.7,4.9,5.4,3.4,15.6-3.5,18.4-.4,2.3,6.6,8.8,6.3,10.5-.3,1.3-4.7,1.1-5.8.8-2-.6-5.7-7.7-7.3-9.5l-7.7-.3c-2.7,3.1,2.6,9.8-3.8,10-2.5,0-3.6-.2-4-2.9-.9-5.7-.5-21.2,0-27.3,0-1.2.4-2.3.6-3.4,5.6.7,13.7-1,18.9,0h0ZM750.5,180.5c-1.2,2.2,0,3.9,0,5.9,0,1.5-1.7,6.4.9,7,.4,0,7.4-.6,8.4-.8,8.1-1.7,5-12.2.3-12.2h-9.6,0Z"/>
  <path class="st0" d="M1004.5,174.5c28.9-4.2,28.9,35.2,3.6,34.7-22.2-.5-23.4-31.8-3.6-34.7ZM1007.7,180.1c-15.4,1.5-13.1,24.8,2.9,22.8,14.1-1.8,11.6-24.2-2.9-22.8Z"/>
  <path class="st0" d="M583.2,174.5c29.1-4.3,28.9,35.5,3.6,34.7-22.2-.7-23.2-31.8-3.6-34.7ZM595.5,183.3c-5.3-5.3-15.9-3.7-18.7,3.5-3.7,9.4,3.9,18.2,13.9,15.7,8.3-2.1,10.7-13.3,4.9-19.2h0Z"/>
  <path class="st0" d="M1067.9,174.5c28.1-4.1,28.8,35.5,3,34.6-21.7-.8-23.5-31.6-3-34.6ZM1070.4,180.1c-15.1,1.8-12.6,24.8,2.9,22.8,14.3-1.8,11.9-24.5-2.9-22.8Z"/>
  <path class="st0" d="M1183.5,174.5c29-4.2,28.8,35.5,3.6,34.7-22.4-.7-23.1-31.8-3.6-34.7ZM1186,180.1c-14.6,2.1-12.3,24.8,3.5,22.8,14.4-1.8,11.4-24.9-3.5-22.8Z"/>
  <path class="st0" d="M845.3,174.9c3.7.7,8.3,5.2,9,9.1,1,6.5-1.5,9.8-6.1,13.7l6.1,9.3c.4,2.3-5.1,1.7-6.8.5-1.9-1.4-4.2-6.9-5.8-8.2-1.7-1.4-6.2-.7-8.4-.7-2.3,4.3,2.3,10.7-4.8,9.9-2.6-.3-2.6-1.8-2.8-4-.6-6.8-.5-19.3,0-26.2,0-1.2.4-2.3.6-3.4,5.6.7,13.7-1,18.9,0h0ZM833.2,180.5c.2.6-.6,1.4-.6,1.6v9.9c1.7,1.4,6.1,1.2,8.4.9,10.3-1.2,6.7-12.4,1.9-12.4h-9.6,0Z"/>
  <path class="st0" d="M720.7,180.5v7.5h14.6c2,1.9,2,4.4,0,6.2h-14.6c.4,2.8-1,6.5.9,8.7h16.8c1.5,1.2,1.5,4.4,0,5.6h-23c-.1,0-1.6-1.5-1.6-1.6v-31.1l.9-.9h23c1.9.8.8,5.6-.6,5.6h-16.5,0Z"/>
  <path class="st0" d="M902.1,180.5v7.5h14.6c1.5.7,1.6,6.2,0,6.2h-14.6c.4,2.8-1,6.5.9,8.7h17.1c.8,1.3.8,5.6-.9,5.6h-23l-.9-.9v-31.7l.9-.9h23c1.9.8.8,5.6-.6,5.6h-16.5,0Z"/>
  <path class="st0" d="M1122.1,191.1v13.4c-12.7,10-32.6,2.7-31.1-14.9,1-12.5,14.5-17.9,25.5-14.2,4.7,1.6,8.3,4.7,2.7,8.3-5.2-2.7-8.4-4.8-14.4-2.6-11.3,4.2-8.5,22.4,5.2,22,8.7-.3,5-5,6.2-11.2,1.7-1.7,3.8-1.3,5.9-.6h0Z"/>
  <path class="st0" d="M683.1,174.9h18.6c.4,0,5,2.5,5.6,3.1,5.4,5,4.4,14.2-1.6,18.3-5.2,3.5-10.4,1.6-16.2,2.5l-1.2,9.4c-1.2.8-6.3.3-6.3-1.3v-31.1l.9-.9h0ZM689.9,180.5c-1.4,0-1.3,11.5-.4,12.2,5.7.9,15.8,1,14.2-7.3-.3-1.7-2.9-4.8-4.5-4.8h-9.3,0Z"/>
  <path class="st0" d="M676.5,197c-1.3,10.1-11.5,13.9-20.4,11.1-12.9-4.1-9-22.2-9.2-32.5l6.5-.5c1.8,1.1-.1,19.9,1,23.6,1.8,5.9,13.7,6,15.1-1.1.8-3.9-.7-20.3.4-22l6.6-.6c-.6,7,.8,15.3,0,22.1h0Z"/>
  <path class="st0" d="M540.5,198.9c-.3,1.3-2.9,5.5-4,6.6-7.7,7.1-23.6,3.6-25.1-7.9-.3-2.3-.4-21.1.2-22.1l5.9-.5c3.2,8.2-5.1,29.2,9.7,27.9,11.4-1,5.6-20.1,7.4-27.4l5.9-.6c-.9,7,1.2,17.3,0,23.9h0Z"/>
  <path class="st0" d="M641,181.7c-5.4-.7-14.1-5-16.7,2.3,0,5.1,14.1,4.5,18,9.3,4.3,5.3.8,12.6-5.3,14.6-4.2,1.4-8.5,1.3-12.8.3s-9.5-2.7-5.2-7.7c1.5-.5,5.9,2.1,8.1,2.4,2.8.4,9.9.5,10.2-3.4.6-6.1-17.9-3.9-19.3-12.4-1.8-11.1,7.8-13.8,17-12.6,4.7.6,9.5,2.1,5.9,7.3h0Z"/>
  <path class="st0" d="M936.2,174.5c4.9-.7,10.3-.3,14.5,2.6,1.6,1.1,3.2,1.8,2.1,4.1-2.1,4.6-4.5,1.3-7,.2-10.7-4.7-20.7,5.6-15.3,15.9,3.8,7.2,13.5,7,19.1,2,.3,0,2.7,2.3,2.9,2.7,2,3-4.1,5.4-6.4,6.1-26,7.9-32.5-30.3-10-33.6h0Z"/>
  <path class="st0" d="M1152.5,174.5c4.6-.6,12.1-.1,15.4,3.5,2.1,2.3-.7,5.6-2.5,5.6s-4.6-3.3-7.6-3.6c-17.1-1.9-16.9,24.8.1,22.8,5.1-.6,7.7-6.9,11.3,0-3.6,6-12.6,7.1-18.9,5.2-17.3-5.2-15.6-31.1,2.2-33.6h0Z"/>
  <path class="st0" d="M882.9,180.5v26.4c0,2.1-7.5,2.1-7.5,0v-26.4h-9c-1.4,0-2.5-4.8-.6-5.6h26.7c1.9.8.8,5.6-.6,5.6h-9,0Z"/>
  <path class="st0" d="M499.4,180.5v26.4c0,1.6-5.9,2.5-6.8.6v-27h-9.6c-1.4,0-2.5-4.8-.6-5.6h27.4c2,1.3.9,5.6-1.2,5.6h-9Z"/>
  <path class="st0" d="M570.3,174.9v4.9c-1.1,1.7-9.6-.5-11.2,1.6v26.1c-1,1.8-6.8,1-6.8-.6v-26.4h-9c-.2,0-1.5-.6-1.6-1v-4.6h28.6,0Z"/>
  <path class="st0" d="M1037,174.9v27.3c5.1,1,10.5.8,15.7,0,2,.5,1.9,3.5,1.6,5.1l-.8,1h-21.8l-.9-.9v-32.6h6.2,0Z"/>
  <path class="st0" d="M377.5,175c.5,1,.6,2.2.7,3.3.5,6.3.8,21.5,0,27.3-.5,3.6-5.4,3.8-6.9,2-1.8-2.3.2-26.4-.6-31.1.5-2.6,4.7-1.4,6.8-1.5h0Z"/>
  <path class="st0" d="M1127.7,174.9c1.6.3,6.1-.8,6.8,1-.5,9.3,1,20,.1,29.2-.4,4.2-3.7,4.4-6.9,2.5v-32.6h0Z"/>
  <path class="st0" d="M782.2,174.9v32.6c-3.2,1.9-6.5,1.8-6.9-2.5-.9-9.1.7-19.9.1-29.2.6-1.8,5.1-.7,6.8-1h0Z"/>
  <path class="st0" d="M479.5,174.9v32.6c-3.2,1.9-6.5,1.8-6.9-2.5-.6-5.7-.7-23.2.2-28.5,0-.5.3-1.6.9-1.7h5.8Z"/>
  <path class="st0" d="M1068.7,172.5c-1.4-1.4,8.1-11.1,11.2-6.5-2.4,3.5-6.6,7.4-11.2,6.5Z"/>
</svg>