<?xml version="1.0" encoding="UTF-8"?>
<svg id="Layer_1" xmlns="http://www.w3.org/2000/svg" version="1.1" viewBox="0 0 1206.8 581.4">
  <!-- Generator: Adobe Illustrator 29.0.0, SVG Export Plug-In . SVG Version: 2.1.0 Build 186)  -->
  <defs>
    <style>
      .st0 {
        fill: #118ab1;
      }

      .st1 {
        fill: #f69b1d;
      }
    </style>
  </defs>
  <path class="st1" d="M98.3,496.2c2.7,2.6,14,1.3,10.1,10-3.1,6.9-14.1,2.3-18.5-1.1-21.3-16.3-29.6-42.3-36.2-67.3-1.2-4.5-1.5-13.1-3.1-16.5-1.9-4.2-17-4.7-22.6-6.8-11.7-4.4-21.9-17.6-23.4-30-.7-5.7.8-12.3,7.8-11.1,6.1,1.1,2.8,6.5,2.7,10.3-.3,10.5,6.9,19.4,18,19.1,3,0,13.2-1.1,14.2-3.3,1.7-3.5.3-22.1.6-27.8,2.3-44.4,12-88,28.9-129,5.3-12.8,26.5-59.5,39.4-62.9,8.2-2.2,21.9,7.1,20.9,16.5-14.7,43.2-29.9,85.5-39.7,130.2-3.7,17-7.6,34.9-8.1,52.3,42-36.4,76.8-84.1,100-134.6,11.7-25.4,23-54.1,20.8-82.6-2.4-31.1-13.2-35-42.9-32-32.6,3.3-65.4,40.8-83.2,65.9-25.1,35.4-46,74.8-69.4,111.3-2.2,2-4.8,4-8,3.3-1.2-3.2-1.7-6.6-.9-10,1-4.7,16.9-27.3,20.6-33.8,29.3-50.9,67.3-136.9,129.6-152.4,44.5-11,81.5,22.6,84.7,66.1,6.3,85-65.1,179.3-134.5,221.7-3.3,2-19,9.5-19.6,10.9-2.8,5.8-.2,30.9.7,38.5.6,4.8,1.4,10.3,2.3,15.1.8,3.7,7.4,28.7,8.7,30h0Z"/>
  <path class="st1" d="M1197.7,312.4c-1.8.3-1.1-2.6-1.1-3.8,0-8.2,1.6-16.4,1.2-25.1-4.7-98.6-112.6-159.4-198.1-106.6-68.3,42.1-83,138.5-31.1,199.7,4.1,4.8,19.8,21.1,25.2,21.5,2.1.2,18.9-7.9,24.3-9.1,10.2-2.2,20.6-1.4,30.8-3,10.3-1.6,23.7-8.6,32.2-9.3,6.3-.5,9.2,3.4,7,9.3-5,13.2-36.3,21.9-38.9,27.5-2.9,6.2,7.6,7.3,12,7.6,33.9,2.1,55.4-14.7,83.8-26.1,21.2-8.5,17.6,4.1,8,16.7-33.2,43.2-103.4,51.4-152,33.7-113.2-41.2-138.7-189.5-47.6-268.1,66.2-57,174.4-46.8,226.3,24,23.1,31.4,27.4,73.7,18.1,110.9h0Z"/>
  <path class="st1" d="M808,200.3c5.4-14.6,7.3-32.3,12.8-46.6.9-2.3,1.4-4.7,3.6-6.2l93.6-.5c1.7,5.2,0,10.1,0,14.7,0,9.1,1.7,18.3,1,27.1-1.5,18.3-12.4,31.5-18.6,47.8-15.1,39.9-12.4,87.7,4.7,126.4,2.8,6.2,11.6,19.3,12.7,24.4,2.5,11.5.4,29.2.2,41.1,0,4,1.6,8.8,0,13.6h-58.8v-241.7h-51.2,0Z"/>
  <path class="st0" d="M650.1,263.4c-16.2,21.3-26.5,46.4-35.9,71.3-7,18.5-12.2,39.5-19.8,57.5-1.9,4.4-4.1,9.8-8.9,11.8-8.1,3.4-20.7,1.7-26.8-4.9-15.3-16.6-10.9-84.7,2.2-102.4,4.9-6.6,17.6-9.2,22.7-1.9-1.9,12.9-5.4,25.8-6.4,38.9-.7,8.7-.1,17.8,0,26.2.1,6.6-1.2,14.2,1.6,20.1,17-41.6,30.3-84.9,54.1-123.4,7.7-12.5,16-26.8,32.8-25.7,18.3,1.2,19.1,16.2,18.2,31-3.4,55.4-23.8,107.7-9.5,165.1,1.4,5.6,7.9,25.3,11.7,28.6,3.5,3,10.8-.8,11.8,3.4,1.5,6-12.6,8.2-16.6,7.9-29.7-1.8-39.5-29-43.9-54.1-8.9-50.1,6.8-100.1,12.7-149.4h0Z"/>
  <path class="st0" d="M474.8,402.8c1.8,1.6,5.7-6,6.4-7.2,12.8-24,16.9-52.8,21.1-79.1,1-6.4,6.5-28.9,13.4-30.2,16.8-3.3,20.9,11.1,20.1,24.5-1.7,26.8-16,75.3,4.3,98,2.6,2.9,9,3.2,6,8.2-3,4.9-18.8-1-22.9-3.3-16.8-9.3-20-30.5-21.7-47.9-6.8,14-7.9,30.7-13.7,45.1-4.5,11.1-10.4,11.5-21.7,7.7-34.5-11.7-33.7-77.8-29.2-106.4,1.7-10.3,6.8-36.3,16.2-41.6,5.9-3.3,20.2-2.3,21.7,5.4,1.6,8.4-3.4,27.4-4.3,37-2.8,30.1-2.6,60.3,4.3,89.8h0Z"/>
  <path class="st1" d="M250.5,354.9l34.9-95.2c3.1-3.9,12.3-1.3,16.1,1.1,12.8,8,10,28.2,12.2,41.2.8,5,6.2,23.4,9.2,26.7,2.4,2.6,13.4,4.4,3.7,10.3-11.9,7.2-36.8-10.1-39.9-23l-4.6-22.1c-9.5,26.7-17.3,54.3-21.6,82.4-1.7,10.9-1.8,23-3.5,33.5-.4,2.1-1.8,7.4-3.9,8.1-12.6,1.6-18.4-6.5-23.4-16.5-17.7-35.2-10.4-87.1,1-123.5,2.3-7.2,7.4-25.6,15.5-27,5.2-1,17.9,3.1,17.5,10-5.5,31.2-13.2,62.4-13.1,94.2h0Z"/>
  <path class="st1" d="M367.2,350.8c-3.7,3.9-1.2,39.8,5.9,42,9.4,2.9,23.7-8,29.1-15.1,9.1-11.9,9.9-27.3,13.3-41.4,8-1.5,9.3,2.5,10.1,9.5,4.6,43.7-37.7,80.9-76.6,49.4-42.1-34-4.5-138.6,47.3-114.8,6.9,3.2,13.8,10.1,13,18.4-1.3,13.4-16.7,35.3-27.3,43.6-3.4,2.7-13.5,7.1-14.9,8.5h0ZM375.7,323.3c4.2-7.8,10.5-14.9,12-24-6.1,4.8-10.8,13.2-12.6,20.6-.3,1.1-1.4,3.6.6,3.3h0Z"/>
  <path class="st1" d="M1159.7,272.2c1,1-4.1,11.1-4.7,13.3-3.5,12.3,1,20.2,5.8,31.4-3.6-.8-7.2,1-10.3,1.1-36.4,1-73.6-1-110-1.2-18.4,0-44,2.8-62,0-16.1-2.5-20.8-28.1-10.1-38.8,1-1,9.1-5.8,10-5.8h181.3,0ZM1148.8,279.8h-168.2c-1.1,0-6.6,4.1-7.6,5.5-3.4,5.1-3.5,12.5-.4,17.8.9,1.5,5.6,6.2,6.9,6.2h169.3c-1.2-9.8-5.1-5.6-11.4-5.4-46.3,1.4-104.7,3-150.3,0-2.2-.1-6.8-.1-5.9-3.3h165.5v-4.3h-169.9l1.6-3.3h168.2v-4.3h-165.5v-3.3h165l2.7-5.4h0Z"/>
  <path class="st0" d="M704.3,283.3c5.8-.6,18.7,4.1,21.8,9.2,3.2,5.2,2.5,13.4,2.4,19.5-.7,28.8-5.8,77.9,8.2,103.9,1.9,3.5,6.5,4.7,3.5,10.2s-17-.2-21.5-3.1c-30.7-20-36.8-87.2-29.2-119.4,1.9-8.1,5.2-19.2,14.7-20.2h0Z"/>
  <path class="st0" d="M1159.7,322.2c0,4.4-3.4,7.9-4.7,12.2-3.5,11.5.7,22.1,5.8,32.5h-181.3c-.5,0-6.5-2.8-7.4-3.4-12.8-8.3-12.2-30.2.4-38.4.9-.6,5.5-2.8,5.9-2.8h181.3ZM1148.8,329.9h-169.3c-5.7,0-9.6,10.8-9.3,15.8.4,5.6,5.5,13.6,11.5,13.6h167.1c.6-1.5-1.7-6.5-2.7-6.5h-165v-2.2h165.5v-4.3c-5-2.1-9.5,0-13.6,0-48.2,0-96.6-1.8-144.8-1.1-3.6,0-10.9,3.9-11.4-2.2h168.2c2.1,0,2.1-5.4,0-5.4h-163.9v-2.2h165.5l2.2-5.4h0Z"/>
  <path class="st0" d="M994.7,267.8c-4.6-1-10.4-8-11.2-12.8-2.9-17,7.1-22.2,22.1-23.2,1.8,0,3.6,1.2,5.4,1.1,38.9-1.2,77.6-.2,116.5,0,3.8,0,7.9-1.8,12.5,0-7.9,11.6-5.9,22.9,0,34.8h-145.4ZM1130.3,238.4h-133.4c-4,0-8.2,8.4-8.1,12.4.1,5.1,5.1,11.5,10.2,11.5h132.3l-2.7-5.4h-131.2v-2.2h131.8v-3.3h-135v-2.2h133.4c1.2,0,2.1-3.1,1.6-4.3h-131.8v-2.2h131.2c1.2,0,2.1-3.1,1.6-4.3h0Z"/>
  <path class="st0" d="M721.6,238.6c3.9-.7,10.9.7,14.4,2.5,7.7,3.9-.5,6.7-3.1,11-3.5,5.7-3.2,14.8-9.4,18.9-7.6,5.1-25.1,0-24.5-10.2.6-8.5,14.6-20.8,22.6-22.2h0Z"/>
</svg>